<?xml version="1.0" standalone="no"?>
<!DOCTYPE svg PUBLIC "-//W3C//DTD SVG 1.1//EN" "http://www.w3.org/Graphics/SVG/1.1/DTD/svg11.dtd" >
<svg>
<metadata>
Created by FontForge 20110222 at Mon Mar  7 10:41:16 2011
 By www-data
(c) 2005 Ray Larabie. This font is freeware. Read attached text file for details. Don't forget to have a look at the rest of the Expressway family at Typodermic.
Try the OpenType version with optional old-style (lowercase) numerals.
http://www.typodermic.com
</metadata>
<defs>
<font id="ExpresswayFree" horiz-adv-x="591" >
  <font-face 
    font-family="Expressway Free"
    font-weight="400"
    font-stretch="normal"
    units-per-em="1000"
    panose-1="2 0 5 6 3 0 0 2 0 4"
    ascent="800"
    descent="-200"
    x-height="531"
    cap-height="692"
    bbox="-54 -204 2053 923"
    underline-thickness="20"
    underline-position="-123"
    unicode-range="U+0020-F732"
  />
    <missing-glyph />
    <glyph glyph-name="space" unicode=" " horiz-adv-x="319" 
 />
    <glyph glyph-name="dollar" unicode="$" horiz-adv-x="458" 
d="M194 71q-48 5 -93.5 22.5t-87.5 54.5l55 65q32 -32 75.5 -47t84.5 -15q21 0 43 3.5t41 12t31 22.5t12 36q0 41 -28 62q-21 16 -49 26t-58 19.5t-59.5 21t-52.5 28.5t-37.5 42t-14.5 63q0 29 11 52.5t30 40.5t44 27.5t53 14.5v70h82v-71q37 -7 71.5 -25.5t60.5 -50.5
l-63 -52q-20 24 -51 36.5t-62 12.5q-18 0 -34.5 -3t-30 -9.5t-21.5 -16.5t-8 -25t5.5 -25t17.5 -18q24 -17 54 -28.5t61 -22t60.5 -23t52.5 -30t37 -44t14 -64.5q0 -39 -14 -67.5t-36.5 -48t-52.5 -30.5t-61 -15v-72h-82v71z" />
    <glyph glyph-name="percent" unicode="%" horiz-adv-x="676" 
d="M502 291q31 0 58 -12t47 -32t32 -47t12 -58t-12 -58t-32 -47.5t-47 -32t-58 -11.5t-58 11.5t-47.5 32t-32 47.5t-11.5 58t11.5 58t32 47t47.5 32t58 12zM170 698q31 0 58 -12t47 -32t32 -47t12 -58t-12 -58t-32 -47.5t-47 -32t-58 -11.5t-58 11.5t-47 32t-31.5 47.5
t-11.5 58t11.5 58t31.5 47t47 32t58 12zM588 691l-434 -691h-73l431 691h76zM502 226q-36 0 -60.5 -25t-24.5 -60q0 -36 24.5 -60.5t60.5 -24.5q35 0 60.5 24.5t25.5 60.5q0 18 -7 33.5t-18.5 27t-27 18t-33.5 6.5zM170 634q-18 0 -33.5 -7t-27 -18.5t-18 -27t-6.5 -33.5
q0 -36 25 -60.5t60 -24.5q36 0 61 24.5t25 60.5q0 18 -6.5 33.5t-18.5 27t-27.5 18.5t-33.5 7z" />
    <glyph glyph-name="ampersand" unicode="&#x26;" horiz-adv-x="650" 
d="M247 705q57 0 99 -18t71 -60l-67 -73q-41 50 -102 50q-32 0 -55.5 -18.5t-23.5 -56.5q0 -36 25.5 -79t67 -87.5t93.5 -88t105 -81.5q20 28 28.5 61.5t10.5 73.5h100q-2 -65 -15.5 -110.5t-39.5 -80.5l90 -60l-51 -86l-102 69q-77 -74 -204 -74q-61 0 -108.5 19t-80 51
t-49.5 73.5t-17 87.5q0 48 22 94t70 83q-22 30 -33 64t-11 69q0 34 12.5 66.5t35.5 57t55.5 39.5t73.5 15zM269 85q40 0 67.5 10t53.5 29q-60 44 -114.5 90t-103.5 100q-22 -18 -37 -42.5t-15 -53.5q0 -27 10.5 -51t30 -42.5t47 -29t61.5 -10.5z" />
    <glyph glyph-name="quotesingle" unicode="'" horiz-adv-x="127" 
d="M37 426l-11 307h73l-14 -307h-48z" />
    <glyph glyph-name="parenleft" unicode="(" horiz-adv-x="249" 
d="M153 -169q-70 104 -103 209t-33 220q0 113 33 220t103 211h75q-74 -96 -110.5 -204.5t-36.5 -226.5q0 -109 36.5 -214.5t111.5 -214.5h-76z" />
    <glyph glyph-name="parenright" unicode=")" horiz-adv-x="250" 
d="M18 -170q75 110 111.5 215.5t36.5 214.5q0 118 -36.5 226.5t-110.5 204.5h75q71 -104 103.5 -211t32.5 -220q0 -115 -32.5 -220.5t-103.5 -209.5h-76z" />
    <glyph glyph-name="asterisk" unicode="*" horiz-adv-x="412" 
d="M395 524l-126 -41l79 -106l-68 -51l-76 104l-75 -104l-68 51l79 106l-126 41l25 77l125 -41v132h81v-132l125 41z" />
    <glyph glyph-name="plus" unicode="+" horiz-adv-x="370" 
d="M159 309h-154v61h154v146h61v-146h141v-61h-141v-149h-61v149z" />
    <glyph glyph-name="comma" unicode="," horiz-adv-x="178" 
d="M14 -128l68 203l85 -34l-92 -197z" />
    <glyph glyph-name="hyphen" unicode="-" horiz-adv-x="375" 
d="M32 304h308v-81h-308v81z" />
    <glyph glyph-name="period" unicode="." horiz-adv-x="151" 
d="M22 37q0 21 14 37t37 16q21 0 37 -16t16 -37t-16 -36t-37 -15q-23 0 -37 15t-14 36z" />
    <glyph glyph-name="slash" unicode="/" horiz-adv-x="360" 
d="M72 -74h-67l282 765h67z" />
    <glyph glyph-name="zero" unicode="0" horiz-adv-x="567" 
d="M282 706q57 0 104.5 -23t82 -69t54 -113.5t19.5 -155.5q0 -89 -19.5 -156t-54 -112t-82 -68t-104.5 -23t-104.5 23t-82 68t-53.5 112t-19 156q0 88 19 155.5t53.5 113.5t82 69t104.5 23zM282 606q-75 0 -118 -65t-43 -196t43 -196t118 -65t118.5 65t43.5 196t-43.5 196
t-118.5 65z" />
    <glyph glyph-name="one" unicode="1" horiz-adv-x="224" 
d="M89 538h-73v87q75 10 85 67h88v-692h-100v538z" />
    <glyph glyph-name="two" unicode="2" horiz-adv-x="541" 
d="M273 706q44 0 86 -11.5t75 -35t53 -58.5t20 -83q0 -50 -20.5 -85t-51.5 -61t-69 -46.5t-72 -39.5q-54 -32 -93.5 -79t-54.5 -108h365v-99h-485q4 61 15.5 112.5t33.5 95t56 80t83 67.5q25 16 58.5 31.5t62.5 34t49.5 42.5t20.5 58q0 22 -11 38.5t-29 27t-41.5 16
t-47.5 5.5q-42 0 -86 -18t-73 -53l-71 71q21 24 48 42.5t57 30.5t61 18.5t61 6.5z" />
    <glyph glyph-name="three" unicode="3" horiz-adv-x="534" 
d="M254 698q41 0 79 -10.5t67 -31.5t46.5 -53t17.5 -75q0 -54 -18.5 -88t-57.5 -55q27 -6 49.5 -22t38.5 -38.5t25 -50.5t9 -59q0 -50 -19 -91t-54 -70t-83.5 -45t-106.5 -16q-34 0 -66.5 6t-62.5 17t-55.5 27.5t-44.5 37.5l63 76q16 -17 37.5 -29t44 -19.5t45 -11.5
t40.5 -4q77 0 121 33.5t44 86.5q0 49 -32 82.5t-95 33.5h-69v93h61q42 0 67 26.5t25 65.5q0 22 -10.5 38.5t-27 27t-37 15.5t-41.5 5q-37 0 -74 -15.5t-57 -41.5l-64 72q29 42 82 62.5t113 20.5z" />
    <glyph glyph-name="four" unicode="4" horiz-adv-x="567" 
d="M471 692v-472h70v-97h-70v-123h-100v123h-363v94l372 475h91zM121 217h250v318z" />
    <glyph glyph-name="five" unicode="5" horiz-adv-x="564" 
d="M478 592h-304l-16 -150q40 23 75 31t70 8q49 0 92 -15t75 -44.5t50 -73.5t18 -102q0 -69 -24.5 -117t-64.5 -78t-91 -44t-104 -14q-132 0 -233 86l64 78q45 -37 90 -50.5t86 -13.5q84 0 131 42.5t47 111.5q0 36 -12 62t-32.5 43.5t-47 26t-55.5 8.5q-47 0 -80.5 -13
t-68.5 -39l-83 34l32 323h386v-100z" />
    <glyph glyph-name="six" unicode="6" horiz-adv-x="572" 
d="M308 443q53 0 97.5 -16t76.5 -44.5t50 -68t18 -87.5q0 -49 -20.5 -91.5t-55.5 -74t-83 -49.5t-103 -18q-72 0 -123 24.5t-83 64.5t-47 92t-15 107q0 85 27 163t75 134q33 39 70.5 62t79 35.5t87 16.5t95.5 4v-48.5t-1 -49.5q-56 0 -108 -7.5t-95 -31.5t-74.5 -69.5
t-47.5 -121.5q31 44 76.5 59t103.5 15zM291 355q-69 0 -115.5 -34t-53.5 -93q3 -27 14.5 -52t31.5 -44t50 -30t69 -11q40 0 71 11t52 30t32 43.5t11 51.5q0 28 -12 51.5t-33.5 40.5t-51 26.5t-65.5 9.5z" />
    <glyph glyph-name="seven" unicode="7" horiz-adv-x="523" 
d="M20 692h487v-82q-62 -72 -104.5 -145t-71.5 -154q-25 -72 -40.5 -148.5t-25.5 -162.5h-100q10 85 25.5 167.5t41.5 161.5q24 73 60 141.5t85 121.5h-357v100z" />
    <glyph glyph-name="eight" unicode="8" horiz-adv-x="571" 
d="M283 698q41 0 80 -10.5t69.5 -31.5t49 -52.5t18.5 -74.5q0 -104 -75 -144q26 -7 48.5 -23t38.5 -39t25 -51.5t9 -61.5q0 -48 -19 -88t-54 -68.5t-83.5 -44.5t-106.5 -16t-106.5 16t-83 44.5t-53.5 68.5t-19 88q0 65 33.5 113t87.5 62q-75 41 -75 140q0 44 18.5 76.5
t48.5 54t69 32t80 10.5zM283 601q-22 0 -43.5 -5t-38.5 -15.5t-27.5 -26t-10.5 -35.5q0 -52 27 -77.5t93 -25.5q67 0 94 28.5t27 74.5q0 20 -10.5 35.5t-28 26t-39 15.5t-43.5 5zM283 91q39 0 70 9.5t52.5 26t33 38.5t11.5 46q0 66 -41 94.5t-126 28.5q-47 0 -78.5 -9.5
t-51 -26t-28 -39t-8.5 -48.5q0 -24 11.5 -46t33 -38.5t52 -26t69.5 -9.5z" />
    <glyph glyph-name="nine" unicode="9" horiz-adv-x="571" 
d="M260 248q-53 0 -97.5 16t-76.5 45t-50 68.5t-18 87.5t20.5 90.5t55.5 74t83 50t103 18.5q72 0 123 -24.5t83 -65t47 -92.5t15 -107q0 -85 -27 -163t-75 -133q-33 -39 -70.5 -62.5t-79 -35.5t-87.5 -16t-95 -4v48.5t1 48.5q56 0 108 7t95 31t74.5 69.5t47.5 122.5
q-31 -43 -76.5 -58.5t-103.5 -15.5zM277 337q69 0 115.5 34t53.5 92q-3 27 -14.5 52t-31.5 44t-50 30t-69 11q-40 0 -71 -11t-52 -29.5t-32 -43.5t-11 -52q0 -28 12 -51t33.5 -40t51 -26.5t65.5 -9.5z" />
    <glyph glyph-name="colon" unicode=":" horiz-adv-x="159" 
d="M25 37q0 21 14 37t37 16q21 0 37 -16t16 -37t-16 -36t-37 -15q-23 0 -37 15t-14 36zM28 439q0 21 14 37t37 16q21 0 37 -16t16 -37t-16 -36t-37 -15q-23 0 -37 15t-14 36z" />
    <glyph glyph-name="semicolon" unicode=";" horiz-adv-x="182" 
d="M5 -128l68 203l85 -34l-92 -197zM57 439q0 21 14.5 37t36.5 16t37.5 -16t15.5 -37t-15.5 -36t-37.5 -15t-36.5 15t-14.5 36z" />
    <glyph glyph-name="equal" unicode="=" horiz-adv-x="402" 
d="M32 406v62h356v-62h-356zM32 212v61h356v-61h-356z" />
    <glyph glyph-name="question" unicode="?" horiz-adv-x="442" 
d="M154 39q0 23 15.5 39.5t39.5 16.5q23 0 40 -16.5t17 -39.5t-17 -38t-40 -15q-24 0 -39.5 15t-15.5 38zM213 698q43 0 81.5 -10.5t67.5 -32t45.5 -55t16.5 -78.5q0 -32 -7.5 -57.5t-19.5 -47t-28 -39.5t-32 -35q-35 -35 -55 -67.5t-22 -79.5h-93q2 38 11.5 73.5t30.5 66.5
q17 25 37.5 46.5t38 42.5t29.5 43.5t12 49.5q0 22 -9 38t-24.5 25.5t-35.5 14t-42 4.5q-37 0 -73 -13.5t-70 -42.5l-60 81q45 38 94.5 55.5t106.5 17.5z" />
    <glyph glyph-name="at" unicode="@" horiz-adv-x="709" 
d="M482 231q19 -31 55 -31q23 0 40.5 13t29.5 33t18 43.5t6 45.5q0 63 -20.5 110.5t-55.5 79t-81 47.5t-97 16q-70 0 -124.5 -24.5t-91.5 -65.5t-56.5 -94.5t-19.5 -111.5q0 -52 15 -101.5t48 -90.5q22 -27 46 -45.5t52 -30.5t59 -19t67 -12l-13 -62q-40 6 -76 15t-68.5 24
t-61 37t-53.5 54q-38 48 -58 109t-20 127q0 78 26.5 142.5t73 111t110 72t136.5 25.5q65 0 124 -18t104 -55.5t71.5 -94.5t26.5 -134q0 -45 -11 -82.5t-32.5 -64.5t-53 -42t-71.5 -15q-27 0 -48 11.5t-33 30.5q-16 -13 -40.5 -21t-47.5 -8q-29 0 -52 10.5t-39 29t-24.5 43
t-8.5 52.5q0 62 36.5 96.5t95.5 34.5q17 0 32 -4t26 -12v19h59v-193zM365 366q-38 0 -55.5 -22.5t-17.5 -53.5q0 -33 18 -56t47 -23q17 0 34 4.5t31 13.5v122q-14 7 -28.5 11t-28.5 4z" />
    <glyph glyph-name="A" unicode="A" 
d="M252 692h86l248 -692h-111l-46 134h-269l-45 -134h-110zM188 229h213l-107 316z" />
    <glyph glyph-name="B" unicode="B" horiz-adv-x="567" 
d="M302 692q42 0 76 -13t58.5 -37t38 -57.5t13.5 -73.5q0 -29 -6 -51.5t-16 -39.5t-24 -30t-29 -23q21 -5 43.5 -19t41.5 -36.5t31 -52.5t12 -67q0 -96 -61 -144t-165 -48h-280v692h267zM304 398q18 0 34 8.5t28.5 23t20 32.5t7.5 36q0 42 -25 69t-65 27h-171v-196h171z
M133 96h193q53 0 86.5 26.5t33.5 76.5q0 25 -11.5 45.5t-30.5 35t-42 22t-47 7.5h-182v-213z" />
    <glyph glyph-name="C" unicode="C" horiz-adv-x="578" 
d="M320 606q-90 0 -143 -65t-53 -196q0 -130 53.5 -195.5t142.5 -65.5q43 0 84.5 18t73.5 59l73 -57q-43 -58 -100.5 -88t-127.5 -30q-65 0 -119.5 23t-94.5 68t-62.5 112t-22.5 156q0 88 22.5 155.5t62.5 113.5t94.5 69t119.5 23q80 0 137.5 -33.5t95.5 -92.5l-73 -58
q-34 42 -76 63t-87 21z" />
    <glyph glyph-name="D" unicode="D" horiz-adv-x="600" 
d="M220 692q74 0 138.5 -26.5t112.5 -73t75.5 -109.5t27.5 -136t-27.5 -136t-75.5 -110t-112.5 -74t-138.5 -27h-185v692h185zM135 98h86q52 0 98 18.5t80 51.5t53.5 78.5t19.5 99.5q0 55 -19.5 100.5t-53.5 78t-80 50t-98 17.5h-86v-494z" />
    <glyph glyph-name="E" unicode="E" horiz-adv-x="456" 
d="M35 692h381v-100h-282v-189h175v-99h-175v-207h290v-97h-389v692z" />
    <glyph glyph-name="F" unicode="F" horiz-adv-x="428" 
d="M134 392h180v-99h-180v-293h-99v692h381v-100h-282v-200z" />
    <glyph glyph-name="G" unicode="G" horiz-adv-x="615" 
d="M342 349h247v-92q0 -56 -17.5 -105t-51 -86t-83.5 -58.5t-115 -21.5q-64 0 -118.5 23t-94.5 68t-62.5 112t-22.5 156q0 88 22.5 155.5t63 113.5t95 69t119.5 23q74 0 133 -30.5t101 -99.5l-74 -55q-33 42 -74.5 63.5t-87.5 21.5q-45 0 -81.5 -16.5t-62.5 -49t-40.5 -81.5
t-14.5 -114t14.5 -114t40.5 -81.5t62.5 -49t81.5 -16.5q33 0 63 12t52.5 32.5t36 48t13.5 58.5v21h-145v93z" />
    <glyph glyph-name="H" unicode="H" horiz-adv-x="565" 
d="M429 304h-295v-304h-99v692h99v-289h295v289h100v-692h-100v304z" />
    <glyph glyph-name="I" unicode="I" horiz-adv-x="170" 
d="M35 692h99v-692h-99v692z" />
    <glyph glyph-name="J" unicode="J" horiz-adv-x="492" 
d="M209 -7q-32 0 -63 8t-58 24t-49 39t-35 52l74 61q20 -39 55 -62.5t78 -23.5q30 0 56 12.5t46 34.5t31.5 51t11.5 61v442h100v-442q0 -55 -19.5 -102t-53 -81.5t-78.5 -54t-96 -19.5z" />
    <glyph glyph-name="K" unicode="K" horiz-adv-x="556" 
d="M249 331l-115 -149v-182h-99v692h99v-362l266 362h127l-217 -282l226 -410h-118z" />
    <glyph glyph-name="L" unicode="L" horiz-adv-x="469" 
d="M35 692h99v-595h325v-97h-424v692z" />
    <glyph glyph-name="M" unicode="M" horiz-adv-x="720" 
d="M684 692v-692h-100v471l-201 -471h-48l-201 471v-471h-99v692h111l213 -500l213 500h112z" />
    <glyph glyph-name="N" unicode="N" horiz-adv-x="580" 
d="M445 182v510h99v-692h-104l-306 509v-509h-99v692h104z" />
    <glyph glyph-name="O" unicode="O" horiz-adv-x="635" 
d="M316 706q64 0 118 -23t93 -69t60.5 -113.5t21.5 -155.5q0 -89 -21.5 -156t-60.5 -112t-93 -68t-118 -23t-117.5 23t-92.5 68t-60.5 112t-21.5 156q0 88 21.5 155.5t60.5 113.5t92.5 69t117.5 23zM316 606q-89 0 -141 -65t-52 -196t52 -196t141 -65t141.5 65.5t52.5 195.5
q0 131 -52 196t-142 65z" />
    <glyph glyph-name="P" unicode="P" horiz-adv-x="536" 
d="M301 692q51 0 92.5 -13.5t71 -39.5t45.5 -65t16 -91t-16 -91t-45.5 -65.5t-71 -40t-92.5 -13.5h-167v-273h-99v692h266zM134 367h169q57 0 92.5 27.5t35.5 87.5q0 59 -36 85.5t-92 26.5h-169v-227z" />
    <glyph glyph-name="Q" unicode="Q" horiz-adv-x="634" 
d="M316 706q64 0 118 -23t93 -69t60.5 -113.5t21.5 -155.5q0 -94 -24 -163t-67 -114l45 -57l-69 -56l-48 61q-57 -30 -130 -30q-64 0 -117.5 23t-92.5 68t-60.5 112t-21.5 156q0 88 21.5 155.5t60.5 113.5t92.5 69t117.5 23zM316 606q-89 0 -141 -65t-52 -196t52 -196
t141 -65q17 0 35 3.5t31 11.5l-74 96l71 54l75 -98q26 32 41 80t15 114q0 131 -52 196t-142 65z" />
    <glyph glyph-name="R" unicode="R" horiz-adv-x="563" 
d="M278 273h-144v-273h-99v692h266q51 0 92.5 -13t71 -39t45.5 -64.5t16 -88.5q0 -87 -42.5 -136t-105.5 -64l160 -287h-118zM134 367h170q56 0 91.5 27.5t35.5 87.5q0 30 -9.5 51t-26.5 34.5t-40 20t-51 6.5h-170v-227z" />
    <glyph glyph-name="S" unicode="S" horiz-adv-x="580" 
d="M293 699q78 0 135.5 -27t91.5 -67l-73 -67q-60 65 -155 65q-26 0 -49.5 -5.5t-41.5 -16t-28.5 -25t-10.5 -32.5q0 -24 12.5 -40.5t34 -28.5t49.5 -21t59 -18q45 -14 88 -30t76.5 -41t53.5 -61t20 -90q0 -58 -24 -96.5t-61.5 -62t-83.5 -33.5t-90 -10q-93 0 -164.5 25.5
t-113.5 77.5l72 67q34 -35 86 -55.5t117 -20.5q75 0 120 28t45 76q0 29 -14 50t-35.5 35.5t-48 24.5t-51.5 16q-39 10 -82 24.5t-79 38.5t-59 59t-23 86q0 39 16 71t45.5 55t71.5 36t94 13z" />
    <glyph glyph-name="T" unicode="T" horiz-adv-x="504" 
d="M302 0h-99v592h-199v100h494v-100h-196v-592z" />
    <glyph glyph-name="U" unicode="U" horiz-adv-x="567" 
d="M133 250q0 -32 11.5 -61t32 -51t47.5 -34.5t58 -12.5t58 12.5t47.5 34.5t32.5 51t12 61v442h99v-442q0 -55 -20 -102t-53.5 -81.5t-79 -54t-96.5 -19.5t-96 19.5t-78.5 54t-53.5 81.5t-20 102v442h99v-442z" />
    <glyph glyph-name="V" unicode="V" 
d="M251 0l-247 692h112l179 -535l180 535h110l-248 -692h-86z" />
    <glyph glyph-name="W" unicode="W" horiz-adv-x="843" 
d="M186 0l-182 692h109l124 -507l136 507h97l136 -507l124 507h107l-182 -692h-96l-139 498l-139 -498h-95z" />
    <glyph glyph-name="X" unicode="X" horiz-adv-x="600" 
d="M26 692h118l159 -260l153 260h116l-219 -349l219 -343h-119l-158 259l-152 -259h-117l217 350z" />
    <glyph glyph-name="Y" unicode="Y" horiz-adv-x="573" 
d="M335 0h-99v214l-232 478h113l169 -362l169 362h112l-232 -479v-213z" />
    <glyph glyph-name="Z" unicode="Z" horiz-adv-x="500" 
d="M47 692h431v-79l-321 -521h321v-92h-446v77l321 520h-306v95z" />
    <glyph glyph-name="bracketleft" unicode="[" horiz-adv-x="216" 
d="M32 691h160v-62h-97v-738h105v-61h-168v861z" />
    <glyph glyph-name="backslash" unicode="\" horiz-adv-x="359" 
d="M4 691h67l282 -765h-67z" />
    <glyph glyph-name="bracketright" unicode="]" horiz-adv-x="218" 
d="M183 -170h-169v61h106v738h-97v62h160v-861z" />
    <glyph glyph-name="underscore" unicode="_" horiz-adv-x="545" 
d="M-2 -79v80h549v-80h-549z" />
    <glyph glyph-name="grave" unicode="`" horiz-adv-x="219" 
d="M52 748l157 -146l-31 -42l-171 130z" />
    <glyph glyph-name="a" unicode="a" horiz-adv-x="477" 
d="M353 51q-24 -31 -60 -48t-84 -17q-34 0 -67.5 11t-60 33.5t-43 56.5t-16.5 81q0 44 16 76.5t44 53.5t65.5 31.5t81.5 10.5q43 0 72.5 -12.5t47.5 -28.5q0 37 -5 65.5t-17.5 47.5t-35 29t-56.5 10q-40 0 -73 -13t-52 -27l-43 81q23 21 68.5 37t108.5 16q103 0 150.5 -57
t47.5 -181v-307h-89v51zM349 216q-17 20 -49.5 32.5t-71.5 12.5q-54 0 -83.5 -22.5t-29.5 -70.5q0 -45 30 -69t81 -24q21 0 40.5 6.5t36 16t28.5 22t18 24.5v72z" />
    <glyph glyph-name="b" unicode="b" horiz-adv-x="499" 
d="M134 481q20 31 55.5 47.5t80.5 16.5q43 0 80 -18t64.5 -53t43 -87.5t15.5 -121.5q0 -68 -16 -120t-44 -87t-66.5 -53.5t-83.5 -18.5t-84 18.5t-55 50.5v-55h-89v695l99 34v-248zM243 450q-73 0 -115 -95v-173q8 -20 19 -38t25.5 -32t33 -22.5t41.5 -8.5q58 0 93.5 46.5
t35.5 138.5q0 93 -36 138.5t-97 45.5z" />
    <glyph glyph-name="c" unicode="c" horiz-adv-x="461" 
d="M256 447q-60 0 -97 -45.5t-37 -136.5t37 -136.5t97 -45.5q29 0 57 17t49 46l72 -64q-13 -18 -31 -35.5t-41 -31t-51 -21.5t-61 -8q-48 0 -89 18t-71.5 53t-48 87t-17.5 121t17.5 121.5t49 87.5t75 53t95.5 18q61 0 108 -27.5t71 -76.5l-76 -69q-18 39 -44 57t-64 18z" />
    <glyph glyph-name="d" unicode="d" horiz-adv-x="485" 
d="M449 0h-89v55q-13 -30 -51.5 -49.5t-84.5 -19.5q-44 0 -80.5 18t-63 53.5t-41.5 87.5t-15 120q0 69 14.5 121.5t41 87.5t63 53t80.5 18q45 0 77 -17t50 -47v214l99 34v-729zM244 450q-61 0 -93.5 -45.5t-32.5 -138.5q0 -91 32 -138t90 -47q45 0 73.5 28.5t42.5 72.5v173
q-17 51 -46.5 73t-65.5 22z" />
    <glyph glyph-name="e" unicode="e" horiz-adv-x="498" 
d="M248 545q49 0 90 -18.5t70.5 -54t46 -86.5t16.5 -116q0 -17 -5 -35h-345q5 -75 42 -115.5t96 -40.5q34 0 62.5 13.5t48.5 36.5l63 -56q-26 -38 -75 -62.5t-105 -24.5q-49 0 -91 18t-72.5 53t-48 87t-17.5 121t16 121.5t45.5 87.5t71 53t91.5 18zM248 453q-53 0 -85 -35.5
t-39 -104.5h247q-7 69 -39 104.5t-84 35.5z" />
    <glyph glyph-name="f" unicode="f" horiz-adv-x="234" 
d="M51 531v65q0 63 28.5 96t85.5 33q34 0 64 -11v-86q-17 9 -41 9q-19 0 -28 -10.5t-9 -36.5v-59h78v-84h-78v-447h-100v447h-50v84h50z" />
    <glyph glyph-name="g" unicode="g" horiz-adv-x="493" 
d="M235 9q-48 0 -86.5 16.5t-66.5 49.5t-43 83t-15 117t16 117.5t43.5 84.5t64.5 51t79 17t78.5 -16.5t57.5 -47.5v50h94v-422q0 -54 -12 -103t-40 -88.5t-74 -68t-115 -41.5l-18 86q36 10 67 27t53 40.5t34.5 52.5t12.5 62q-25 -34 -59 -50.5t-71 -16.5zM248 103
q73 0 115 89v165q-16 39 -44.5 68.5t-73.5 29.5q-58 0 -92.5 -44t-34.5 -133q0 -90 35 -132.5t95 -42.5z" />
    <glyph glyph-name="h" unicode="h" horiz-adv-x="462" 
d="M343 322q0 60 -23.5 90.5t-67.5 30.5q-40 0 -70 -20t-51 -69v-354h-99v695l99 34v-249q26 34 61.5 49.5t78.5 15.5q36 0 67 -13t54.5 -38.5t36.5 -63.5t13 -89v-341h-99v322z" />
    <glyph glyph-name="i" unicode="i" horiz-adv-x="173" 
d="M135 531v-531h-100v531h100zM33 662q0 22 14.5 38t36.5 16t37.5 -16t15.5 -38q0 -21 -15.5 -36t-37.5 -15t-36.5 15t-14.5 36z" />
    <glyph glyph-name="j" unicode="j" horiz-adv-x="196" 
d="M158 531v-534q0 -36 -10.5 -67.5t-30.5 -55t-50 -37.5t-70 -14v103q29 0 45 18.5t16 52.5v534h100zM107 716q22 0 37.5 -16t15.5 -38t-15.5 -36.5t-37.5 -14.5t-36.5 14.5t-14.5 36.5t14.5 38t36.5 16z" />
    <glyph glyph-name="k" unicode="k" horiz-adv-x="452" 
d="M329 0l-124 273l-71 -91v-182h-99v695l99 34v-400l145 202h128l-140 -179l180 -352h-118z" />
    <glyph glyph-name="l" unicode="l" horiz-adv-x="170" 
d="M35 695l99 34v-729h-99v695z" />
    <glyph glyph-name="m" unicode="m" horiz-adv-x="755" 
d="M129 531v-51q28 34 61.5 49.5t73.5 15.5q88 0 126 -83q20 34 57 58.5t87 24.5q86 0 136 -50t50 -150v-345h-99v322q0 68 -22 96.5t-70 28.5q-42 0 -66.5 -30.5t-35.5 -78.5v-338h-100v322q0 68 -21.5 96.5t-69.5 28.5q-35 0 -58.5 -23t-43.5 -70v-354h-99v531h94z" />
    <glyph glyph-name="n" unicode="n" horiz-adv-x="480" 
d="M346 322q0 66 -26.5 95.5t-74.5 29.5q-71 0 -111 -93v-354h-99v531h94v-51q29 34 66.5 49.5t78.5 15.5q36 0 67 -13t54.5 -38.5t36.5 -63.5t13 -89v-341h-99v322z" />
    <glyph glyph-name="o" unicode="o" horiz-adv-x="504" 
d="M251 545q49 0 91 -18t72 -53t47 -87.5t17 -121.5t-17 -121t-47 -87t-72 -53t-91 -18q-50 0 -91.5 18t-71.5 53t-47 87t-17 121t17 121.5t47 87.5t71.5 53t91.5 18zM251 447q-60 0 -94.5 -45.5t-34.5 -136.5t34.5 -136.5t94.5 -45.5t95 45.5t35 136.5t-35 136.5t-95 45.5z
" />
    <glyph glyph-name="p" unicode="p" horiz-adv-x="486" 
d="M34 531h89v-55q14 30 52 49.5t84 19.5q43 0 80 -18t64 -53.5t42 -87.5t15 -120q0 -69 -14.5 -121.5t-41 -87.5t-63 -53t-80.5 -18q-46 0 -78 17t-50 47v-209l-99 -33v723zM239 81q61 0 93.5 45.5t32.5 138.5q0 91 -32 138t-90 47q-45 0 -75 -30t-41 -71v-173
q14 -47 45.5 -71t66.5 -24z" />
    <glyph glyph-name="q" unicode="q" horiz-adv-x="498" 
d="M363 50q-20 -31 -55.5 -47.5t-80.5 -16.5q-43 0 -80 18t-64.5 53t-43 87.5t-15.5 121.5q0 67 16 119.5t44 87.5t66.5 53.5t83.5 18.5t84 -18.5t55 -50.5v55h89v-690l-99 -33v242zM254 81q36 0 67 23.5t48 71.5v173q-11 44 -42 72.5t-77 28.5q-58 0 -93 -46.5t-35 -138.5
q0 -93 35.5 -138.5t96.5 -45.5z" />
    <glyph glyph-name="r" unicode="r" horiz-adv-x="317" 
d="M129 531v-51q16 31 48.5 48t69.5 17q21 0 41 -6t34 -20l-36 -89q-29 20 -57 20q-63 0 -95 -96v-354h-99v531h94z" />
    <glyph glyph-name="s" unicode="s" horiz-adv-x="452" 
d="M222 548q56 0 99 -14t76 -45l-42 -80q-11 13 -28.5 22t-37 15t-38.5 8.5t-33 2.5q-37 0 -60.5 -13.5t-23.5 -39.5q0 -14 16 -26.5t35 -22.5q32 -17 72 -29.5t76 -30.5q20 -10 37.5 -23t30.5 -30t20.5 -39.5t7.5 -51.5q0 -48 -18.5 -79t-47.5 -50t-65.5 -26.5t-73.5 -7.5
q-69 0 -121 17t-93 48l41 81q30 -25 76 -39.5t94 -14.5q18 0 37.5 3t35 10t26 19t10.5 30q0 23 -17.5 38t-40.5 29q-17 9 -37.5 17t-42 15.5t-44 16t-41.5 20.5q-31 19 -51.5 47.5t-20.5 75.5q0 43 17.5 71t45 45t60.5 24t64 7z" />
    <glyph glyph-name="t" unicode="t" horiz-adv-x="297" 
d="M184 -1q-21 0 -42 8t-37.5 23.5t-26.5 38.5t-10 54v324h-65v84h65v149l100 34v-183h107v-84h-107v-306q0 -21 15 -33t34 -12t40 9t37 27l-21 -107q-11 -11 -35.5 -18.5t-53.5 -7.5z" />
    <glyph glyph-name="u" unicode="u" horiz-adv-x="470" 
d="M133 242q0 -81 21.5 -119.5t75.5 -38.5q35 0 60 23t45 70v354h99v-531h-94v51q-26 -34 -61 -49.5t-73 -15.5q-36 0 -67.5 12.5t-54.5 38t-36.5 64t-13.5 89.5v341h99v-289z" />
    <glyph glyph-name="v" unicode="v" horiz-adv-x="476" 
d="M196 0l-192 531h110l125 -374l124 374h107l-190 -531h-84z" />
    <glyph glyph-name="w" unicode="w" horiz-adv-x="688" 
d="M154 0l-150 531h108l88 -352l99 352h91l98 -352l88 352h106l-150 -531h-88l-102 341l-101 -341h-87z" />
    <glyph glyph-name="x" unicode="x" horiz-adv-x="513" 
d="M38 531h121l103 -166l93 166h121l-165 -258l177 -273h-123l-113 186l-106 -186h-121l176 280z" />
    <glyph glyph-name="y" unicode="y" horiz-adv-x="477" 
d="M211 -192h-104l78 220l-181 503h110l125 -374l124 374h108z" />
    <glyph glyph-name="z" unicode="z" horiz-adv-x="478" 
d="M53 531h400v-80l-286 -356h286v-95h-422v79l286 355h-264v97z" />
    <glyph glyph-name="braceleft" unicode="{" horiz-adv-x="304" 
d="M241 692h18t18 -1v-59q-35 0 -54 -10.5t-28 -30t-11 -48.5t-2 -65q0 -73 -24.5 -127.5t-80.5 -89.5q59 -35 82 -88.5t23 -128.5q0 -36 2 -65t11 -48.5t28 -30t54 -10.5v-59q-9 -1 -18 -1.5t-18 -0.5q-46 0 -70.5 20.5t-36 52t-13.5 69t-2 72.5q0 81 -27.5 127t-84.5 66
v53q57 20 84.5 64.5t27.5 125.5q0 34 2 72t13.5 69t36 51.5t70.5 20.5z" />
    <glyph glyph-name="bar" unicode="|" horiz-adv-x="132" 
d="M32 691h63v-861h-63v861z" />
    <glyph glyph-name="braceright" unicode="}" horiz-adv-x="303" 
d="M60 692q46 0 70.5 -20.5t36 -51.5t13.5 -69t2 -72q0 -81 27.5 -125.5t84.5 -64.5v-53q-57 -20 -84.5 -66t-27.5 -127q0 -35 -2 -72.5t-13.5 -69t-36 -52t-70.5 -20.5q-9 0 -18 0.5t-18 1.5v59q35 0 54 10.5t28 30t11 48.5t2 65q0 75 23 128.5t82 88.5q-56 35 -80.5 89.5
t-24.5 127.5q0 36 -2 65t-11 48.5t-28 30t-54 10.5v59q9 1 18 1h18z" />
    <glyph glyph-name="asciitilde" unicode="~" horiz-adv-x="512" 
d="M157 413q36 0 61.5 -12.5t47 -27.5t41.5 -27.5t43 -12.5q29 0 48.5 16.5t33.5 40.5l50 -37q-23 -39 -58.5 -60.5t-73.5 -21.5q-32 0 -57 12.5t-47 27.5t-43.5 27.5t-46.5 12.5q-26 0 -45 -15t-33 -38l-50 37q23 39 57 58.5t72 19.5z" />
    <glyph glyph-name="Euro" unicode="&#x20ac;" horiz-adv-x="639" 
d="M450 393h-261q-2 -11 -2 -23.5v-26.5q0 -15 0.5 -30t2.5 -27h190l-52 -81h-119q24 -69 71.5 -104t116.5 -35q90 0 150 67l68 -42q-45 -54 -100 -79.5t-118 -25.5q-99 0 -172 55t-102 164h-111l57 81h39q-1 16 -1.5 32.5t-0.5 33.5v21t2 20h-96l57 82h51q28 115 101 173
t176 58q115 0 204 -87l-47 -70q-69 75 -157 75q-146 0 -192 -149h298z" />
    <glyph glyph-name="quotedblbase" unicode="&#x201e;" horiz-adv-x="337" 
d="M165 -127l68 202l85 -33l-92 -198zM22 -127l68 202l85 -33l-92 -198z" />
    <glyph glyph-name="ellipsis" unicode="&#x2026;" horiz-adv-x="960" 
d="M31 37q0 21 14 37t37 16q21 0 37 -16t16 -37t-16 -36t-37 -15q-23 0 -37 15t-14 36zM825 37q0 21 14 37t37 16q21 0 37 -16t16 -37t-16 -36t-37 -15q-23 0 -37 15t-14 36zM428 37q0 21 14.5 37t36.5 16t37.5 -16t15.5 -37t-15.5 -36t-37.5 -15t-36.5 15t-14.5 36z" />
    <glyph glyph-name="circumflex" unicode="&#x2c6;" horiz-adv-x="308" 
d="M154 650l-109 -91l-31 36l140 143l140 -143l-31 -36z" />
    <glyph glyph-name="guilsinglleft" unicode="&#x2039;" horiz-adv-x="188" 
d="M19 289l148 125v-75l-98 -77l98 -78v-74l-148 125v54z" />
    <glyph glyph-name="OE" unicode="&#x152;" horiz-adv-x="922" 
d="M517 87q-35 -51 -87.5 -76t-125.5 -25q-59 0 -109.5 23t-88 68t-59 112t-21.5 156q0 88 21.5 155.5t59 113.5t88 69t109.5 23q142 0 213 -103v89h367v-100h-272v-189h174v-99h-174v-207h281v-97h-376v87zM318 606q-89 0 -141 -65t-52 -196t52 -196t141 -65t141.5 65.5
t52.5 195.5q0 131 -52 196t-142 65z" />
    <glyph glyph-name="quoteleft" unicode="&#x2018;" horiz-adv-x="177" 
d="M101 483l-92 197l85 34l68 -203z" />
    <glyph glyph-name="quoteright" unicode="&#x2019;" horiz-adv-x="177" 
d="M14 511l68 203l85 -34l-92 -197z" />
    <glyph glyph-name="quotedblleft" unicode="&#x201c;" horiz-adv-x="337" 
d="M253 482l-92 197l85 34l68 -203zM110 482l-92 197l85 34l68 -203z" />
    <glyph glyph-name="quotedblright" unicode="&#x201d;" horiz-adv-x="338" 
d="M166 511l67 203l86 -34l-93 -197zM22 511l68 203l86 -34l-93 -197z" />
    <glyph glyph-name="bullet" unicode="&#x2022;" horiz-adv-x="340" 
d="M170 494q30 0 57 -11t47 -30t31.5 -45t11.5 -55t-11.5 -55t-31.5 -45t-47 -30t-57 -11t-57 11t-47 30t-31.5 45t-11.5 55t11.5 55t31.5 45t47 30t57 11z" />
    <glyph glyph-name="endash" unicode="&#x2013;" horiz-adv-x="518" 
d="M33 304h451v-81h-451v81z" />
    <glyph glyph-name="emdash" unicode="&#x2014;" horiz-adv-x="760" 
d="M33 304h694v-81h-694v81z" />
    <glyph glyph-name="tilde" unicode="&#x2dc;" horiz-adv-x="445" 
d="M298 587q-27 0 -48 13t-39 28.5t-35 28.5t-36 13q-25 0 -42.5 -23t-30.5 -52l-45 40q14 44 47 71.5t66 27.5q32 0 55 -13.5t41.5 -29t34.5 -29t35 -13.5q25 0 43.5 24.5t31.5 55.5l45 -40q-7 -24 -20.5 -43t-30.5 -32t-35.5 -20t-36.5 -7z" />
    <glyph glyph-name="trademark" unicode="&#x2122;" horiz-adv-x="832" 
d="M799 691v-409h-62v298l-122 -298h-24l-122 298v-298h-63v409h83l113 -278l114 278h83zM219 283h-62v346h-133v62h316v-62h-121v-346z" />
    <glyph glyph-name="oe" unicode="&#x153;" horiz-adv-x="854" 
d="M606 545q49 0 90 -18.5t70.5 -54t46 -86.5t16.5 -116q0 -17 -5 -35h-345q5 -75 42 -115.5t96 -40.5q34 0 62.5 13.5t48.5 36.5l63 -56q-26 -38 -75 -62.5t-105 -24.5q-58 0 -105 25t-76 76q-28 -51 -74 -76t-104 -25q-50 0 -91.5 18t-71.5 53t-47 87t-17 121t17 121.5
t47 87.5t71.5 53t91.5 18q57 0 103 -25t75 -75q27 50 72 75t104 25zM252 447q-60 0 -94.5 -45.5t-34.5 -136.5t34.5 -136.5t94.5 -45.5t95 45.5t35 136.5t-35 136.5t-95 45.5zM606 453q-53 0 -85 -35.5t-39 -104.5h247q-7 69 -39 104.5t-84 35.5z" />
    <glyph glyph-name="exclamdown" unicode="&#xa1;" horiz-adv-x="172" 
d="M135 -15h-90v512h80zM141 638q0 -23 -15.5 -39.5t-39.5 -16.5q-23 0 -40 16.5t-17 39.5q0 22 17 37.5t40 15.5q24 0 39.5 -15.5t15.5 -37.5z" />
    <glyph glyph-name="sterling" unicode="&#xa3;" horiz-adv-x="530" 
d="M92 413h47v66q0 106 50 160.5t149 54.5q84 0 148 -46l-45 -72q-10 8 -24 15t-28.5 12t-29 7.5t-26.5 2.5q-112 0 -112 -134v-66h185v-81h-185v-111q0 -32 -12 -72t-38 -69h354v-80h-481v78q24 9 41.5 27t29.5 39t18 43t6 40v105h-47v81z" />
    <glyph glyph-name="yen" unicode="&#xa5;" 
d="M336 122v-122h-82v122h-179v71h179v93h-179v71h158l-215 335h103l175 -284l176 284h101l-216 -335h160v-71h-181v-93h181v-71h-181z" />
    <glyph glyph-name="dieresis" unicode="&#xa8;" horiz-adv-x="338" 
d="M79 609q-21 0 -34.5 12.5t-13.5 32.5q0 21 13.5 34t34.5 13q20 0 34 -13t14 -34q0 -20 -14 -32.5t-34 -12.5zM258 609q-20 0 -32.5 12.5t-12.5 32.5q0 21 12.5 34t32.5 13q22 0 34.5 -13t12.5 -34q0 -20 -12.5 -32.5t-34.5 -12.5z" />
    <glyph glyph-name="registered" unicode="&#xae;" horiz-adv-x="626" 
d="M23 415q0 60 23 113t62 92.5t92 62.5t113 23t113 -23t92.5 -62.5t62 -92.5t22.5 -113t-22.5 -113t-62 -92t-92.5 -62t-113 -23t-113 23t-92 62t-62 92t-23 113zM86 415q0 -47 17.5 -88t48.5 -72t72.5 -48.5t88.5 -17.5t88.5 17.5t72.5 48.5t49 72t18 88q0 48 -18 89.5
t-49 72t-72.5 48.5t-88.5 18t-88.5 -18t-72.5 -48.5t-48.5 -72t-17.5 -89.5zM323 570q39 0 65 -24.5t26 -69.5q0 -29 -14.5 -51t-39.5 -29l55 -124h-62l-43 111h-34v-111h-54v298h101zM276 440h49q15 0 24.5 9.5t9.5 26.5q0 19 -9.5 28.5t-24.5 9.5h-49v-74z" />
    <glyph glyph-name="macron" unicode="&#xaf;" horiz-adv-x="321" 
d="M33 691h254v-59h-254v59z" />
    <glyph glyph-name="degree" unicode="&#xb0;" horiz-adv-x="343" 
d="M171 698q31 0 58 -12t47 -32t32 -47t12 -58t-12 -58t-32 -47.5t-47 -32t-58 -11.5t-58 11.5t-47 32t-31.5 47.5t-11.5 58t11.5 58t31.5 47t47 32t58 12zM171 634q-18 0 -33.5 -7t-27 -18.5t-18 -27t-6.5 -33.5q0 -36 25 -60.5t60 -24.5t60.5 24.5t25.5 60.5q0 18 -7 33.5
t-18.5 27t-27 18.5t-33.5 7z" />
    <glyph glyph-name="acute" unicode="&#xb4;" horiz-adv-x="219" 
d="M211 690l-171 -130l-31 42l157 146z" />
    <glyph glyph-name="mu" unicode="&#xb5;" horiz-adv-x="528" 
d="M434 140q0 -37 32 -37q14 0 26.5 7t20.5 18v-99q-10 -14 -29.5 -23t-43.5 -9q-23 0 -42.5 9.5t-30.5 34.5q-20 -30 -50.5 -43t-66.5 -13q-35 0 -65.5 14t-52.5 43v-202h-99v691h99v-359q18 -46 43.5 -69.5t62.5 -23.5q49 0 73 29.5t24 95.5v327h99v-391z" />
    <glyph glyph-name="cedilla" unicode="&#xb8;" horiz-adv-x="162" 
d="M15 -183l61 194h79l-95 -215z" />
    <glyph glyph-name="onequarter" unicode="&#xbc;" horiz-adv-x="701" 
d="M636 411v-278h41v-60h-41v-73h-61v73h-215v48l229 290h47zM122 0h-76l469 691h77zM71 598h-42v55q44 5 50 38h55v-412h-63v319zM448 133h127v159z" />
    <glyph glyph-name="onehalf" unicode="&#xbd;" horiz-adv-x="741" 
d="M70 598h-42v55q44 5 50 38h55v-412h-63v319zM121 0h-76l469 691h77zM578 420q27 0 52 -7t44 -21t30.5 -35.5t11.5 -50.5q0 -26 -9.5 -45.5t-25 -34.5t-34.5 -27t-38 -22q-42 -23 -68.5 -48.5t-37.5 -67.5h216v-62h-290q6 72 31 124t82 87q16 10 35 19.5t35.5 21t28 25.5
t11.5 32q0 25 -22.5 37t-51.5 12q-26 0 -49.5 -9.5t-42.5 -32.5l-44 41q23 32 61 48t75 16z" />
    <glyph glyph-name="threequarters" unicode="&#xbe;" horiz-adv-x="754" 
d="M686 411v-278h42v-60h-42v-73h-61v73h-215v48l229 290h47zM210 0h-76l469 691h77zM498 133h127v159zM161 695q25 0 47.5 -6.5t40 -19t28 -32t10.5 -45.5t-10.5 -47t-30.5 -35q33 -11 50.5 -38.5t17.5 -68.5q0 -28 -12.5 -51.5t-34 -40t-50 -26t-59.5 -9.5q-32 0 -71.5 13
t-66.5 40l39 48q20 -20 48.5 -29.5t51.5 -9.5q41 0 67.5 20t26.5 47q0 26 -18 48t-54 22h-43v57h43q19 0 32 17.5t13 39.5q0 23 -19.5 34t-45.5 11q-17 0 -37.5 -11t-32.5 -31l-45 44q18 29 49.5 44t65.5 15z" />
    <glyph glyph-name="questiondown" unicode="&#xbf;" horiz-adv-x="442" 
d="M287 645q0 -23 -15.5 -39.5t-39.5 -16.5q-23 0 -40 16.5t-17 39.5t17 38t40 15q24 0 39.5 -15t15.5 -38zM228 -14q-43 0 -81.5 10t-67.5 31.5t-46 54.5t-17 79q0 31 7.5 57t20 48t28 40t32.5 35q18 18 32 34.5t23.5 33.5t15 36t6.5 43h93q-2 -39 -12 -74t-30 -66
q-17 -25 -37 -46t-38 -42t-30 -43.5t-12 -50.5q0 -23 9 -38.5t24.5 -25t35.5 -14t42 -4.5q37 0 73 13t70 42l60 -80q-45 -38 -94.5 -55.5t-106.5 -17.5z" />
    <glyph glyph-name="AE" unicode="&#xc6;" horiz-adv-x="835" 
d="M228 179l-93 -179h-115l368 692h406v-100h-254v-189h148v-99h-148v-207h263v-97h-363v179h-212zM440 588l-167 -310h167v310z" />
    <glyph glyph-name="Thorn" unicode="&#xde;" horiz-adv-x="518" 
d="M284 553q51 0 92.5 -13.5t71 -39.5t45.5 -65t16 -91t-16 -91.5t-45.5 -65.5t-71 -39.5t-92.5 -13.5h-152v-134h-99v692h99v-139h152zM132 232h152q54 0 89.5 27t35.5 85q0 57 -35.5 83t-89.5 26h-152v-221z" />
    <glyph glyph-name="germandbls" unicode="&#xdf;" horiz-adv-x="483" 
d="M224 729q34 0 67 -11t59 -33.5t42 -55.5t16 -78t-19.5 -79t-51.5 -58q57 -20 90.5 -71t33.5 -114q0 -56 -17 -98t-47.5 -71t-73 -45t-94.5 -19v100q60 3 100 35.5t40 95.5q0 60 -36.5 94.5t-99.5 41.5v78q50 12 67.5 41t17.5 67q0 39 -27 61t-65 22q-42 0 -67 -31.5
t-25 -93.5v-507h-99v519q0 52 14 91.5t39.5 66t60 39.5t75.5 13z" />
    <glyph glyph-name="ae" unicode="&#xe6;" horiz-adv-x="818" 
d="M569 544q49 0 90.5 -18.5t71 -54t46 -86.5t16.5 -116q0 -9 -1.5 -17.5t-3.5 -17.5h-345q5 -75 41.5 -115.5t96.5 -40.5q34 0 62 13.5t48 36.5l63 -56q-26 -38 -74.5 -62.5t-104.5 -24.5q-57 0 -106 23t-83 83q-33 -60 -76.5 -82.5t-97.5 -22.5q-34 0 -67.5 11t-60 33.5
t-43 56.5t-16.5 81q0 44 16 76.5t44 53.5t65.5 31.5t81.5 10.5q42 0 70 -11.5t47 -25.5v53q0 45 -27 71t-75 26q-45 0 -79.5 -13.5t-54.5 -28.5l-43 81q23 21 69 37t109 16q55 0 95.5 -19t63.5 -61q28 39 69.5 59t92.5 20zM352 216q-17 20 -49 32.5t-72 12.5
q-54 0 -83 -22.5t-29 -70.5q0 -45 29.5 -69t80.5 -24q21 0 41 7t36 18.5t28 25.5t18 28v62zM569 452q-109 0 -123 -140h246q-14 140 -123 140z" />
    <glyph glyph-name="eth" unicode="&#xf0;" horiz-adv-x="564" 
d="M25 261q0 63 20 111t54 80.5t80 49.5t97 17q34 0 66.5 -9t55.5 -23q-15 28 -44 53t-64.5 44t-72.5 31t-68 16l17 89q88 -12 157.5 -48t117.5 -92t73 -128.5t25 -156.5q0 -57 -14.5 -112.5t-45.5 -99t-79.5 -70.5t-117.5 -27q-62 0 -110 22.5t-80.5 60.5t-49.5 87.5
t-17 104.5zM440 286q0 24 -2.5 45.5t-8.5 41.5q-26 25 -60 41t-87 16q-29 0 -58 -10t-52 -30t-37 -50t-14 -70q0 -33 11 -66t32 -59t51 -42.5t67 -16.5q43 0 73 17.5t49 46t27.5 64.5t8.5 72z" />
    <glyph glyph-name="thorn" unicode="&#xfe;" horiz-adv-x="485" 
d="M35 695l99 34v-253q14 30 52 49.5t84 19.5q88 0 139 -71t51 -208q0 -69 -14.5 -121.5t-41 -87.5t-63 -53t-80.5 -18q-45 0 -77 16.5t-50 46.5v-208l-99 -33v887zM240 81q61 0 93.5 45.5t32.5 138.5q0 91 -32 138t-90 47q-23 0 -40.5 -8.5t-32 -22.5t-25 -32t-18.5 -38
v-173q42 -95 112 -95z" />
    <glyph glyph-name="copyright" unicode="&#xa9;" horiz-adv-x="766" 
d="M23 345q0 75 28.5 140.5t77 114.5t114 77.5t140.5 28.5t140.5 -28.5t114 -77.5t77 -114.5t28.5 -140.5q0 -74 -28.5 -139.5t-77 -114.5t-114 -77.5t-140.5 -28.5t-140.5 28.5t-114 77.5t-77 114.5t-28.5 139.5zM87 345q0 -61 23.5 -114.5t63.5 -93.5t94 -63.5t115 -23.5
t115 23.5t94 63.5t63.5 93.5t23.5 114.5t-23.5 115t-63.5 94t-94 63.5t-115 23.5t-115 -23.5t-94 -63.5t-63.5 -94t-23.5 -115zM381 495q-57 0 -93 -37.5t-36 -114.5q0 -75 36 -113t93 -38q32 0 57.5 16t44.5 39l45 -37q-27 -33 -66 -52.5t-81 -19.5q-41 0 -75 13t-59 39
t-39 64t-14 89t14 90t39 65t59 39t75 13q47 0 88.5 -21t64.5 -64l-49 -33q-40 63 -104 63z" />
    <glyph glyph-name="numbersign" unicode="#" horiz-adv-x="561" 
d="M347 0h-64l36 182h-136l-36 -182h-63l36 182h-108v62h120l38 191h-119v63h131l37 194h65l-38 -194h136l38 194h65l-39 -194h99v-63h-111l-39 -191h111v-62h-123zM195 244h137l38 191h-137z" />
    <glyph glyph-name="uni00A0" unicode="&#xa0;" horiz-adv-x="319" 
 />
    <glyph glyph-name="less" unicode="&#x3c;" horiz-adv-x="460" 
d="M1 369l435 157v-70l-344 -118l344 -118v-67l-435 156v60z" />
    <glyph glyph-name="greater" unicode="&#x3e;" horiz-adv-x="470" 
d="M467 309l-435 -156v67l344 118l-344 118v70l435 -157v-60z" />
    <glyph glyph-name="asciicircum" unicode="^" horiz-adv-x="359" 
d="M93 355h-65l121 336h60l120 -336h-68l-83 245z" />
    <glyph glyph-name="quotesinglbase" unicode="&#x201a;" horiz-adv-x="177" 
d="M14 -128l68 203l85 -34l-92 -197z" />
    <glyph glyph-name="guillemotleft" unicode="&#xab;" horiz-adv-x="352" 
d="M173 289l148 125v-75l-97 -77l97 -78v-74l-148 125v54zM12 289l148 125v-75l-98 -77l98 -78v-74l-148 125v54z" />
    <glyph glyph-name="guillemotright" unicode="&#xbb;" horiz-adv-x="355" 
d="M342 235l-148 -125v74l98 78l-98 77v75l148 -125v-54zM181 235l-148 -125v74l97 78l-97 77v75l148 -125v-54z" />
    <glyph glyph-name="guilsinglright" unicode="&#x203a;" horiz-adv-x="198" 
d="M174 235l-148 -125v74l97 78l-97 77v75l148 -125v-54z" />
    <glyph glyph-name="cent" unicode="&#xa2;" horiz-adv-x="446" 
d="M206 72q-84 13 -136.5 82.5t-52.5 191.5q0 61 14 109t39 82.5t60 55.5t76 28v71h82v-72q43 -10 82 -38.5t62 -73.5l-63 -52q-23 42 -54 64.5t-69 22.5q-66 0 -107 -48.5t-41 -148.5q0 -97 41 -147t107 -50q35 0 65.5 21.5t54.5 54.5l61 -55q-29 -39 -64.5 -63.5
t-74.5 -32.5v-74h-82v72z" />
    <glyph glyph-name="ordfeminine" unicode="&#xaa;" horiz-adv-x="298" 
d="M208 403q-30 -30 -76 -30q-20 0 -39.5 6.5t-35 20.5t-25 34.5t-9.5 49.5q0 54 32.5 79.5t83.5 25.5q41 0 69 -23q0 34 -12 56.5t-44 22.5q-24 0 -44 -9.5t-32 -19.5l-29 56q14 14 41.5 24.5t63.5 10.5q54 0 84.5 -30.5t30.5 -96.5v-199h-59v22zM207 509q-10 10 -27 16.5
t-36 6.5q-58 0 -58 -48q0 -23 15.5 -35.5t41.5 -12.5q21 0 38 8.5t26 22.5v42z" />
    <glyph glyph-name="ordmasculine" unicode="&#xba;" horiz-adv-x="320" 
d="M160 706q60 0 97.5 -41.5t37.5 -125.5t-37.5 -125t-97.5 -41t-98 41t-38 125t38 125.5t98 41.5zM160 644q-35 0 -54.5 -25.5t-19.5 -79.5q0 -52 19.5 -78.5t54.5 -26.5t54.5 26.5t19.5 78.5q0 54 -19.5 79.5t-54.5 25.5z" />
    <glyph glyph-name="twosuperior" unicode="&#xb2;" horiz-adv-x="342" 
d="M172 700q27 0 52 -6.5t44.5 -20.5t31 -35.5t11.5 -50.5q0 -26 -9.5 -45.5t-25 -35t-34.5 -27.5t-38 -22q-43 -23 -69.5 -48.5t-37.5 -67.5h216v-62h-289q4 57 19 100t47 76q15 16 41.5 30.5t52 30t44.5 33t19 40.5q0 25 -23 37t-52 12q-26 0 -49.5 -10t-41.5 -32l-45 41
q23 32 61 47.5t75 15.5z" />
    <glyph glyph-name="threesuperior" unicode="&#xb3;" horiz-adv-x="335" 
d="M159 695q24 0 47 -6.5t40.5 -19t28 -32t10.5 -45.5t-10.5 -47t-31.5 -35q34 -11 51.5 -38.5t17.5 -68.5q0 -28 -13 -51.5t-34.5 -40t-49.5 -26t-59 -9.5q-33 0 -72 13t-66 40l39 48q20 -20 48.5 -29.5t51.5 -9.5q40 0 66.5 20t26.5 47q0 26 -18 48t-54 22h-42v57h42
q19 0 32 17.5t13 39.5q0 23 -19.5 34t-44.5 11q-18 0 -38.5 -11t-31.5 -31l-45 44q18 29 49.5 44t65.5 15z" />
    <glyph glyph-name="onesuperior" unicode="&#xb9;" horiz-adv-x="152" 
d="M55 598h-43v55q44 5 50 38h55v-412h-62v319z" />
    <glyph glyph-name="brokenbar" unicode="&#xa6;" horiz-adv-x="117" 
d="M33 133h63v-303h-63v303zM96 395h-63v296h63v-296z" />
    <glyph glyph-name="section" unicode="&#xa7;" horiz-adv-x="473" 
d="M248 707q30 0 59.5 -5t55 -15t46 -25.5t33.5 -35.5l-63 -52q-9 12 -25 21.5t-34.5 15.5t-37.5 9.5t-35 3.5q-18 0 -36 -3.5t-33 -10.5t-24.5 -17.5t-9.5 -24.5q0 -20 19 -32.5t42 -23.5q34 -17 75.5 -31.5t78.5 -35.5t62 -52t25 -80q0 -42 -18.5 -71t-47.5 -46
q32 -17 49 -46.5t17 -69.5q0 -43 -18.5 -73t-47.5 -48.5t-66.5 -27t-74.5 -8.5q-61 0 -113.5 17.5t-106.5 61.5l55 65q30 -32 74.5 -47t85.5 -15q21 0 43 3.5t41 12t31 23t12 35.5q0 27 -15.5 43t-45.5 30q-29 16 -69.5 30t-78 33t-64 48.5t-26.5 77.5q0 40 23.5 69t60.5 42
q-38 21 -61 48.5t-23 73.5q0 31 15.5 56t41 42t59.5 26t70 9zM249 405q-18 -1 -36.5 -5.5t-33.5 -13t-25 -20t-10 -25.5q0 -24 18.5 -39t45 -26t55.5 -19.5t51 -17.5q21 9 34 25t13 42q0 24 -10 39.5t-25.5 26.5t-35.5 18.5t-41 14.5z" />
    <glyph glyph-name="plusminus" unicode="&#xb1;" horiz-adv-x="393" 
d="M233 171h-61v138h-154v61h154v146h61v-146h141v-61h-141v-138zM374 141v-61h-356v61h356z" />
    <glyph glyph-name="paragraph" unicode="&#xb6;" horiz-adv-x="520" 
d="M285 289h-57q-49 0 -89 13t-68.5 38.5t-44 63t-15.5 87.5t15.5 87.5t44 62.5t68.5 37.5t89 12.5h258v-691h-62v289h-76v-289h-63v289zM424 629h-76v-278h76v278z" />
    <glyph glyph-name="periodcentered" unicode="&#xb7;" horiz-adv-x="152" 
d="M24 332q0 22 14 37.5t37 15.5q21 0 37 -15.5t16 -37.5q0 -21 -16 -36t-37 -15q-23 0 -37 15t-14 36z" />
    <glyph glyph-name="dagger" unicode="&#x2020;" horiz-adv-x="306" 
d="M5 557h117v134h63v-134h115v-62h-115v-495h-63v495h-117v62z" />
    <glyph glyph-name="daggerdbl" unicode="&#x2021;" horiz-adv-x="311" 
d="M8 557h117v134h63v-134h115v-62h-115v-306h115v-62h-115v-127h-63v127h-117v62h117v306h-117v62z" />
    <glyph glyph-name="Ydieresis" unicode="&#x178;" horiz-adv-x="573" 
d="M335 0h-99v214l-232 478h113l169 -362l169 362h112l-232 -479v-213zM197 784q-21 0 -34.5 12.5t-13.5 32.5q0 21 13.5 34t34.5 13q20 0 34 -13t14 -34q0 -20 -14 -32.5t-34 -12.5zM376 784q-20 0 -32.5 12.5t-12.5 32.5q0 21 12.5 34t32.5 13q22 0 34.5 -13t12.5 -34
q0 -20 -12.5 -32.5t-34.5 -12.5z" />
    <glyph glyph-name="Agrave" unicode="&#xc0;" 
d="M252 692h86l248 -692h-111l-46 134h-269l-45 -134h-110zM188 229h213l-107 316zM238 923l157 -146l-31 -42l-171 130z" />
    <glyph glyph-name="Aacute" unicode="&#xc1;" 
d="M252 692h86l248 -692h-111l-46 134h-269l-45 -134h-110zM188 229h213l-107 316zM396 865l-171 -130l-31 42l157 146z" />
    <glyph glyph-name="Acircumflex" unicode="&#xc2;" 
d="M252 692h86l248 -692h-111l-46 134h-269l-45 -134h-110zM188 229h213l-107 316zM295 825l-109 -91l-31 36l140 143l140 -143l-31 -36z" />
    <glyph glyph-name="Atilde" unicode="&#xc3;" 
d="M252 692h86l248 -692h-111l-46 134h-269l-45 -134h-110zM188 229h213l-107 316zM372 762q-27 0 -48 13t-39 28.5t-35 28.5t-36 13q-25 0 -42.5 -23t-30.5 -52l-45 40q14 44 47 71.5t66 27.5q32 0 55 -13.5t41.5 -29t34.5 -29t35 -13.5q25 0 43.5 24.5t31.5 55.5l45 -40
q-7 -24 -20.5 -43t-30.5 -32t-35.5 -20t-36.5 -7z" />
    <glyph glyph-name="Adieresis" unicode="&#xc4;" 
d="M252 692h86l248 -692h-111l-46 134h-269l-45 -134h-110zM188 229h213l-107 316zM206 784q-21 0 -34.5 12.5t-13.5 32.5q0 21 13.5 34t34.5 13q20 0 34 -13t14 -34q0 -20 -14 -32.5t-34 -12.5zM385 784q-20 0 -32.5 12.5t-12.5 32.5q0 21 12.5 34t32.5 13q22 0 34.5 -13
t12.5 -34q0 -20 -12.5 -32.5t-34.5 -12.5z" />
    <glyph glyph-name="Aring" unicode="&#xc5;" 
d="M294 900q18 0 34 -7t28 -18.5t19 -27.5t7 -34t-7 -33.5t-19 -27.5t-28 -19t-34 -7t-33.5 7t-27 19t-18.5 27.5t-7 33.5t7 34t18.5 27.5t27 18.5t33.5 7zM294 853q-17 0 -28.5 -12t-11.5 -28q0 -18 11.5 -29.5t28.5 -11.5t29 11.5t12 29.5q0 16 -12 28t-29 12zM252 692h86
l248 -692h-111l-46 134h-269l-45 -134h-110zM188 229h213l-107 316z" />
    <glyph glyph-name="Ccedilla" unicode="&#xc7;" horiz-adv-x="578" 
d="M320 606q-90 0 -143 -65t-53 -196q0 -130 53.5 -195.5t142.5 -65.5q43 0 84.5 18t73.5 59l73 -57q-43 -58 -100.5 -88t-127.5 -30q-65 0 -119.5 23t-94.5 68t-62.5 112t-22.5 156q0 88 22.5 155.5t62.5 113.5t94.5 69t119.5 23q80 0 137.5 -33.5t95.5 -92.5l-73 -58
q-34 42 -76 63t-87 21zM219 -183l61 194h79l-95 -215z" />
    <glyph glyph-name="Egrave" unicode="&#xc8;" horiz-adv-x="455" 
d="M35 692h381v-100h-282v-189h175v-99h-175v-207h290v-97h-389v692zM170 923l157 -146l-31 -42l-171 130z" />
    <glyph glyph-name="Eacute" unicode="&#xc9;" horiz-adv-x="455" 
d="M35 692h381v-100h-282v-189h175v-99h-175v-207h290v-97h-389v692zM328 865l-171 -130l-31 42l157 146z" />
    <glyph glyph-name="Ecircumflex" unicode="&#xca;" horiz-adv-x="455" 
d="M35 692h381v-100h-282v-189h175v-99h-175v-207h290v-97h-389v692zM227 825l-109 -91l-31 36l140 143l140 -143l-31 -36z" />
    <glyph glyph-name="Edieresis" unicode="&#xcb;" horiz-adv-x="455" 
d="M35 692h381v-100h-282v-189h175v-99h-175v-207h290v-97h-389v692zM138 784q-21 0 -34.5 12.5t-13.5 32.5q0 21 13.5 34t34.5 13q20 0 34 -13t14 -34q0 -20 -14 -32.5t-34 -12.5zM317 784q-20 0 -32.5 12.5t-12.5 32.5q0 21 12.5 34t32.5 13q22 0 34.5 -13t12.5 -34
q0 -20 -12.5 -32.5t-34.5 -12.5z" />
    <glyph glyph-name="Igrave" unicode="&#xcc;" horiz-adv-x="169" 
d="M35 692h99v-692h-99v692zM29 923l157 -146l-31 -42l-171 130z" />
    <glyph glyph-name="Iacute" unicode="&#xcd;" horiz-adv-x="169" 
d="M35 692h99v-692h-99v692zM187 865l-171 -130l-31 42l157 146z" />
    <glyph glyph-name="Icircumflex" unicode="&#xce;" horiz-adv-x="169" 
d="M35 692h99v-692h-99v692zM86 825l-109 -91l-31 36l140 143l140 -143l-31 -36z" />
    <glyph glyph-name="Idieresis" unicode="&#xcf;" horiz-adv-x="169" 
d="M35 692h99v-692h-99v692zM-3 784q-21 0 -34.5 12.5t-13.5 32.5q0 21 13.5 34t34.5 13q20 0 34 -13t14 -34q0 -20 -14 -32.5t-34 -12.5zM176 784q-20 0 -32.5 12.5t-12.5 32.5q0 21 12.5 34t32.5 13q22 0 34.5 -13t12.5 -34q0 -20 -12.5 -32.5t-34.5 -12.5z" />
    <glyph glyph-name="Ntilde" unicode="&#xd1;" horiz-adv-x="579" 
d="M445 182v510h99v-692h-104l-306 509v-509h-99v692h104zM366 762q-27 0 -48 13t-39 28.5t-35 28.5t-36 13q-25 0 -42.5 -23t-30.5 -52l-45 40q14 44 47 71.5t66 27.5q32 0 55 -13.5t41.5 -29t34.5 -29t35 -13.5q25 0 43.5 24.5t31.5 55.5l45 -40q-7 -24 -20.5 -43
t-30.5 -32t-35.5 -20t-36.5 -7z" />
    <glyph glyph-name="Ograve" unicode="&#xd2;" horiz-adv-x="635" 
d="M316 706q64 0 118 -23t93 -69t60.5 -113.5t21.5 -155.5q0 -89 -21.5 -156t-60.5 -112t-93 -68t-118 -23t-117.5 23t-92.5 68t-60.5 112t-21.5 156q0 88 21.5 155.5t60.5 113.5t92.5 69t117.5 23zM316 606q-89 0 -141 -65t-52 -196t52 -196t141 -65t141.5 65.5t52.5 195.5
q0 131 -52 196t-142 65zM260 923l157 -146l-31 -42l-171 130z" />
    <glyph glyph-name="Oacute" unicode="&#xd3;" horiz-adv-x="635" 
d="M316 706q64 0 118 -23t93 -69t60.5 -113.5t21.5 -155.5q0 -89 -21.5 -156t-60.5 -112t-93 -68t-118 -23t-117.5 23t-92.5 68t-60.5 112t-21.5 156q0 88 21.5 155.5t60.5 113.5t92.5 69t117.5 23zM316 606q-89 0 -141 -65t-52 -196t52 -196t141 -65t141.5 65.5t52.5 195.5
q0 131 -52 196t-142 65zM418 865l-171 -130l-31 42l157 146z" />
    <glyph glyph-name="Ocircumflex" unicode="&#xd4;" horiz-adv-x="635" 
d="M316 706q64 0 118 -23t93 -69t60.5 -113.5t21.5 -155.5q0 -89 -21.5 -156t-60.5 -112t-93 -68t-118 -23t-117.5 23t-92.5 68t-60.5 112t-21.5 156q0 88 21.5 155.5t60.5 113.5t92.5 69t117.5 23zM316 606q-89 0 -141 -65t-52 -196t52 -196t141 -65t141.5 65.5t52.5 195.5
q0 131 -52 196t-142 65zM317 825l-109 -91l-31 36l140 143l140 -143l-31 -36z" />
    <glyph glyph-name="Otilde" unicode="&#xd5;" horiz-adv-x="635" 
d="M316 706q64 0 118 -23t93 -69t60.5 -113.5t21.5 -155.5q0 -89 -21.5 -156t-60.5 -112t-93 -68t-118 -23t-117.5 23t-92.5 68t-60.5 112t-21.5 156q0 88 21.5 155.5t60.5 113.5t92.5 69t117.5 23zM316 606q-89 0 -141 -65t-52 -196t52 -196t141 -65t141.5 65.5t52.5 195.5
q0 131 -52 196t-142 65zM394 762q-27 0 -48 13t-39 28.5t-35 28.5t-36 13q-25 0 -42.5 -23t-30.5 -52l-45 40q14 44 47 71.5t66 27.5q32 0 55 -13.5t41.5 -29t34.5 -29t35 -13.5q25 0 43.5 24.5t31.5 55.5l45 -40q-7 -24 -20.5 -43t-30.5 -32t-35.5 -20t-36.5 -7z" />
    <glyph glyph-name="Odieresis" unicode="&#xd6;" horiz-adv-x="635" 
d="M316 706q64 0 118 -23t93 -69t60.5 -113.5t21.5 -155.5q0 -89 -21.5 -156t-60.5 -112t-93 -68t-118 -23t-117.5 23t-92.5 68t-60.5 112t-21.5 156q0 88 21.5 155.5t60.5 113.5t92.5 69t117.5 23zM316 606q-89 0 -141 -65t-52 -196t52 -196t141 -65t141.5 65.5t52.5 195.5
q0 131 -52 196t-142 65zM228 784q-21 0 -34.5 12.5t-13.5 32.5q0 21 13.5 34t34.5 13q20 0 34 -13t14 -34q0 -20 -14 -32.5t-34 -12.5zM407 784q-20 0 -32.5 12.5t-12.5 32.5q0 21 12.5 34t32.5 13q22 0 34.5 -13t12.5 -34q0 -20 -12.5 -32.5t-34.5 -12.5z" />
    <glyph glyph-name="Ugrave" unicode="&#xd9;" horiz-adv-x="567" 
d="M133 250q0 -32 11.5 -61t32 -51t47.5 -34.5t58 -12.5t58 12.5t47.5 34.5t32.5 51t12 61v442h99v-442q0 -55 -20 -102t-53.5 -81.5t-79 -54t-96.5 -19.5t-96 19.5t-78.5 54t-53.5 81.5t-20 102v442h99v-442zM226 923l157 -146l-31 -42l-171 130z" />
    <glyph glyph-name="Uacute" unicode="&#xda;" horiz-adv-x="567" 
d="M133 250q0 -32 11.5 -61t32 -51t47.5 -34.5t58 -12.5t58 12.5t47.5 34.5t32.5 51t12 61v442h99v-442q0 -55 -20 -102t-53.5 -81.5t-79 -54t-96.5 -19.5t-96 19.5t-78.5 54t-53.5 81.5t-20 102v442h99v-442zM384 865l-171 -130l-31 42l157 146z" />
    <glyph glyph-name="Ucircumflex" unicode="&#xdb;" horiz-adv-x="567" 
d="M133 250q0 -32 11.5 -61t32 -51t47.5 -34.5t58 -12.5t58 12.5t47.5 34.5t32.5 51t12 61v442h99v-442q0 -55 -20 -102t-53.5 -81.5t-79 -54t-96.5 -19.5t-96 19.5t-78.5 54t-53.5 81.5t-20 102v442h99v-442zM283 825l-109 -91l-31 36l140 143l140 -143l-31 -36z" />
    <glyph glyph-name="Udieresis" unicode="&#xdc;" horiz-adv-x="567" 
d="M133 250q0 -32 11.5 -61t32 -51t47.5 -34.5t58 -12.5t58 12.5t47.5 34.5t32.5 51t12 61v442h99v-442q0 -55 -20 -102t-53.5 -81.5t-79 -54t-96.5 -19.5t-96 19.5t-78.5 54t-53.5 81.5t-20 102v442h99v-442zM194 784q-21 0 -34.5 12.5t-13.5 32.5q0 21 13.5 34t34.5 13
q20 0 34 -13t14 -34q0 -20 -14 -32.5t-34 -12.5zM373 784q-20 0 -32.5 12.5t-12.5 32.5q0 21 12.5 34t32.5 13q22 0 34.5 -13t12.5 -34q0 -20 -12.5 -32.5t-34.5 -12.5z" />
    <glyph glyph-name="Yacute" unicode="&#xdd;" horiz-adv-x="573" 
d="M335 0h-99v214l-232 478h113l169 -362l169 362h112l-232 -479v-213zM387 865l-171 -130l-31 42l157 146z" />
    <glyph glyph-name="agrave" unicode="&#xe0;" horiz-adv-x="479" 
d="M353 51q-24 -31 -60 -48t-84 -17q-34 0 -67.5 11t-60 33.5t-43 56.5t-16.5 81q0 44 16 76.5t44 53.5t65.5 31.5t81.5 10.5q43 0 72.5 -12.5t47.5 -28.5q0 37 -5 65.5t-17.5 47.5t-35 29t-56.5 10q-40 0 -73 -13t-52 -27l-43 81q23 21 68.5 37t108.5 16q103 0 150.5 -57
t47.5 -181v-307h-89v51zM349 216q-17 20 -49.5 32.5t-71.5 12.5q-54 0 -83.5 -22.5t-29.5 -70.5q0 -45 30 -69t81 -24q21 0 40.5 6.5t36 16t28.5 22t18 24.5v72zM182 748l157 -146l-31 -42l-171 130z" />
    <glyph glyph-name="aacute" unicode="&#xe1;" horiz-adv-x="479" 
d="M353 51q-24 -31 -60 -48t-84 -17q-34 0 -67.5 11t-60 33.5t-43 56.5t-16.5 81q0 44 16 76.5t44 53.5t65.5 31.5t81.5 10.5q43 0 72.5 -12.5t47.5 -28.5q0 37 -5 65.5t-17.5 47.5t-35 29t-56.5 10q-40 0 -73 -13t-52 -27l-43 81q23 21 68.5 37t108.5 16q103 0 150.5 -57
t47.5 -181v-307h-89v51zM349 216q-17 20 -49.5 32.5t-71.5 12.5q-54 0 -83.5 -22.5t-29.5 -70.5q0 -45 30 -69t81 -24q21 0 40.5 6.5t36 16t28.5 22t18 24.5v72zM340 690l-171 -130l-31 42l157 146z" />
    <glyph glyph-name="acircumflex" unicode="&#xe2;" horiz-adv-x="479" 
d="M353 51q-24 -31 -60 -48t-84 -17q-34 0 -67.5 11t-60 33.5t-43 56.5t-16.5 81q0 44 16 76.5t44 53.5t65.5 31.5t81.5 10.5q43 0 72.5 -12.5t47.5 -28.5q0 37 -5 65.5t-17.5 47.5t-35 29t-56.5 10q-40 0 -73 -13t-52 -27l-43 81q23 21 68.5 37t108.5 16q103 0 150.5 -57
t47.5 -181v-307h-89v51zM349 216q-17 20 -49.5 32.5t-71.5 12.5q-54 0 -83.5 -22.5t-29.5 -70.5q0 -45 30 -69t81 -24q21 0 40.5 6.5t36 16t28.5 22t18 24.5v72zM239 650l-109 -91l-31 36l140 143l140 -143l-31 -36z" />
    <glyph glyph-name="atilde" unicode="&#xe3;" horiz-adv-x="479" 
d="M353 51q-24 -31 -60 -48t-84 -17q-34 0 -67.5 11t-60 33.5t-43 56.5t-16.5 81q0 44 16 76.5t44 53.5t65.5 31.5t81.5 10.5q43 0 72.5 -12.5t47.5 -28.5q0 37 -5 65.5t-17.5 47.5t-35 29t-56.5 10q-40 0 -73 -13t-52 -27l-43 81q23 21 68.5 37t108.5 16q103 0 150.5 -57
t47.5 -181v-307h-89v51zM349 216q-17 20 -49.5 32.5t-71.5 12.5q-54 0 -83.5 -22.5t-29.5 -70.5q0 -45 30 -69t81 -24q21 0 40.5 6.5t36 16t28.5 22t18 24.5v72zM316 587q-27 0 -48 13t-39 28.5t-35 28.5t-36 13q-25 0 -42.5 -23t-30.5 -52l-45 40q14 44 47 71.5t66 27.5
q32 0 55 -13.5t41.5 -29t34.5 -29t35 -13.5q25 0 43.5 24.5t31.5 55.5l45 -40q-7 -24 -20.5 -43t-30.5 -32t-35.5 -20t-36.5 -7z" />
    <glyph glyph-name="adieresis" unicode="&#xe4;" horiz-adv-x="479" 
d="M353 51q-24 -31 -60 -48t-84 -17q-34 0 -67.5 11t-60 33.5t-43 56.5t-16.5 81q0 44 16 76.5t44 53.5t65.5 31.5t81.5 10.5q43 0 72.5 -12.5t47.5 -28.5q0 37 -5 65.5t-17.5 47.5t-35 29t-56.5 10q-40 0 -73 -13t-52 -27l-43 81q23 21 68.5 37t108.5 16q103 0 150.5 -57
t47.5 -181v-307h-89v51zM349 216q-17 20 -49.5 32.5t-71.5 12.5q-54 0 -83.5 -22.5t-29.5 -70.5q0 -45 30 -69t81 -24q21 0 40.5 6.5t36 16t28.5 22t18 24.5v72zM150 609q-21 0 -34.5 12.5t-13.5 32.5q0 21 13.5 34t34.5 13q20 0 34 -13t14 -34q0 -20 -14 -32.5t-34 -12.5z
M329 609q-20 0 -32.5 12.5t-12.5 32.5q0 21 12.5 34t32.5 13q22 0 34.5 -13t12.5 -34q0 -20 -12.5 -32.5t-34.5 -12.5z" />
    <glyph glyph-name="aring" unicode="&#xe5;" horiz-adv-x="479" 
d="M238 725q18 0 34 -7t28 -18.5t19 -27.5t7 -34t-7 -33.5t-19 -27.5t-28 -19t-34 -7t-33.5 7t-27 19t-18.5 27.5t-7 33.5t7 34t18.5 27.5t27 18.5t33.5 7zM238 678q-17 0 -28.5 -12t-11.5 -28q0 -18 11.5 -29.5t28.5 -11.5t29 11.5t12 29.5q0 16 -12 28t-29 12zM353 51
q-24 -31 -60 -48t-84 -17q-34 0 -67.5 11t-60 33.5t-43 56.5t-16.5 81q0 44 16 76.5t44 53.5t65.5 31.5t81.5 10.5q43 0 72.5 -12.5t47.5 -28.5q0 37 -5 65.5t-17.5 47.5t-35 29t-56.5 10q-40 0 -73 -13t-52 -27l-43 81q23 21 68.5 37t108.5 16q103 0 150.5 -57t47.5 -181
v-307h-89v51zM349 216q-17 20 -49.5 32.5t-71.5 12.5q-54 0 -83.5 -22.5t-29.5 -70.5q0 -45 30 -69t81 -24q21 0 40.5 6.5t36 16t28.5 22t18 24.5v72z" />
    <glyph glyph-name="ccedilla" unicode="&#xe7;" horiz-adv-x="461" 
d="M256 447q-60 0 -97 -45.5t-37 -136.5t37 -136.5t97 -45.5q29 0 57 17t49 46l72 -64q-13 -18 -31 -35.5t-41 -31t-51 -21.5t-61 -8q-48 0 -89 18t-71.5 53t-48 87t-17.5 121t17.5 121.5t49 87.5t75 53t95.5 18q61 0 108 -27.5t71 -76.5l-76 -69q-18 39 -44 57t-64 18z
M160 -183l61 194h79l-95 -215z" />
    <glyph glyph-name="egrave" unicode="&#xe8;" horiz-adv-x="497" 
d="M248 545q49 0 90 -18.5t70.5 -54t46 -86.5t16.5 -116q0 -17 -5 -35h-345q5 -75 42 -115.5t96 -40.5q34 0 62.5 13.5t48.5 36.5l63 -56q-26 -38 -75 -62.5t-105 -24.5q-49 0 -91 18t-72.5 53t-48 87t-17.5 121t16 121.5t45.5 87.5t71 53t91.5 18zM248 453q-53 0 -85 -35.5
t-39 -104.5h247q-7 69 -39 104.5t-84 35.5zM191 748l157 -146l-31 -42l-171 130z" />
    <glyph glyph-name="eacute" unicode="&#xe9;" horiz-adv-x="497" 
d="M248 545q49 0 90 -18.5t70.5 -54t46 -86.5t16.5 -116q0 -17 -5 -35h-345q5 -75 42 -115.5t96 -40.5q34 0 62.5 13.5t48.5 36.5l63 -56q-26 -38 -75 -62.5t-105 -24.5q-49 0 -91 18t-72.5 53t-48 87t-17.5 121t16 121.5t45.5 87.5t71 53t91.5 18zM248 453q-53 0 -85 -35.5
t-39 -104.5h247q-7 69 -39 104.5t-84 35.5zM349 690l-171 -130l-31 42l157 146z" />
    <glyph glyph-name="ecircumflex" unicode="&#xea;" horiz-adv-x="497" 
d="M248 545q49 0 90 -18.5t70.5 -54t46 -86.5t16.5 -116q0 -17 -5 -35h-345q5 -75 42 -115.5t96 -40.5q34 0 62.5 13.5t48.5 36.5l63 -56q-26 -38 -75 -62.5t-105 -24.5q-49 0 -91 18t-72.5 53t-48 87t-17.5 121t16 121.5t45.5 87.5t71 53t91.5 18zM248 453q-53 0 -85 -35.5
t-39 -104.5h247q-7 69 -39 104.5t-84 35.5zM248 650l-109 -91l-31 36l140 143l140 -143l-31 -36z" />
    <glyph glyph-name="edieresis" unicode="&#xeb;" horiz-adv-x="497" 
d="M248 545q49 0 90 -18.5t70.5 -54t46 -86.5t16.5 -116q0 -17 -5 -35h-345q5 -75 42 -115.5t96 -40.5q34 0 62.5 13.5t48.5 36.5l63 -56q-26 -38 -75 -62.5t-105 -24.5q-49 0 -91 18t-72.5 53t-48 87t-17.5 121t16 121.5t45.5 87.5t71 53t91.5 18zM248 453q-53 0 -85 -35.5
t-39 -104.5h247q-7 69 -39 104.5t-84 35.5zM159 609q-21 0 -34.5 12.5t-13.5 32.5q0 21 13.5 34t34.5 13q20 0 34 -13t14 -34q0 -20 -14 -32.5t-34 -12.5zM338 609q-20 0 -32.5 12.5t-12.5 32.5q0 21 12.5 34t32.5 13q22 0 34.5 -13t12.5 -34q0 -20 -12.5 -32.5t-34.5 -12.5
z" />
    <glyph glyph-name="igrave" unicode="&#xec;" horiz-adv-x="169" 
d="M35 531h99v-531h-99v531zM29 748l157 -146l-31 -42l-171 130z" />
    <glyph glyph-name="iacute" unicode="&#xed;" horiz-adv-x="169" 
d="M35 531h99v-531h-99v531zM187 690l-171 -130l-31 42l157 146z" />
    <glyph glyph-name="icircumflex" unicode="&#xee;" horiz-adv-x="169" 
d="M35 531h99v-531h-99v531zM86 650l-109 -91l-31 36l140 143l140 -143l-31 -36z" />
    <glyph glyph-name="idieresis" unicode="&#xef;" horiz-adv-x="169" 
d="M35 531h99v-531h-99v531zM-3 609q-21 0 -34.5 12.5t-13.5 32.5q0 21 13.5 34t34.5 13q20 0 34 -13t14 -34q0 -20 -14 -32.5t-34 -12.5zM176 609q-20 0 -32.5 12.5t-12.5 32.5q0 21 12.5 34t32.5 13q22 0 34.5 -13t12.5 -34q0 -20 -12.5 -32.5t-34.5 -12.5z" />
    <glyph glyph-name="ntilde" unicode="&#xf1;" horiz-adv-x="480" 
d="M346 322q0 66 -26.5 95.5t-74.5 29.5q-71 0 -111 -93v-354h-99v531h94v-51q29 34 66.5 49.5t78.5 15.5q36 0 67 -13t54.5 -38.5t36.5 -63.5t13 -89v-341h-99v322zM316 587q-27 0 -48 13t-39 28.5t-35 28.5t-36 13q-25 0 -42.5 -23t-30.5 -52l-45 40q14 44 47 71.5
t66 27.5q32 0 55 -13.5t41.5 -29t34.5 -29t35 -13.5q25 0 43.5 24.5t31.5 55.5l45 -40q-7 -24 -20.5 -43t-30.5 -32t-35.5 -20t-36.5 -7z" />
    <glyph glyph-name="ograve" unicode="&#xf2;" horiz-adv-x="504" 
d="M251 545q49 0 91 -18t72 -53t47 -87.5t17 -121.5t-17 -121t-47 -87t-72 -53t-91 -18q-50 0 -91.5 18t-71.5 53t-47 87t-17 121t17 121.5t47 87.5t71.5 53t91.5 18zM251 447q-60 0 -94.5 -45.5t-34.5 -136.5t34.5 -136.5t94.5 -45.5t95 45.5t35 136.5t-35 136.5t-95 45.5z
M195 748l157 -146l-31 -42l-171 130z" />
    <glyph glyph-name="oacute" unicode="&#xf3;" horiz-adv-x="504" 
d="M251 545q49 0 91 -18t72 -53t47 -87.5t17 -121.5t-17 -121t-47 -87t-72 -53t-91 -18q-50 0 -91.5 18t-71.5 53t-47 87t-17 121t17 121.5t47 87.5t71.5 53t91.5 18zM251 447q-60 0 -94.5 -45.5t-34.5 -136.5t34.5 -136.5t94.5 -45.5t95 45.5t35 136.5t-35 136.5t-95 45.5z
M353 690l-171 -130l-31 42l157 146z" />
    <glyph glyph-name="ocircumflex" unicode="&#xf4;" horiz-adv-x="504" 
d="M251 545q49 0 91 -18t72 -53t47 -87.5t17 -121.5t-17 -121t-47 -87t-72 -53t-91 -18q-50 0 -91.5 18t-71.5 53t-47 87t-17 121t17 121.5t47 87.5t71.5 53t91.5 18zM251 447q-60 0 -94.5 -45.5t-34.5 -136.5t34.5 -136.5t94.5 -45.5t95 45.5t35 136.5t-35 136.5t-95 45.5z
M252 650l-109 -91l-31 36l140 143l140 -143l-31 -36z" />
    <glyph glyph-name="otilde" unicode="&#xf5;" horiz-adv-x="504" 
d="M251 545q49 0 91 -18t72 -53t47 -87.5t17 -121.5t-17 -121t-47 -87t-72 -53t-91 -18q-50 0 -91.5 18t-71.5 53t-47 87t-17 121t17 121.5t47 87.5t71.5 53t91.5 18zM251 447q-60 0 -94.5 -45.5t-34.5 -136.5t34.5 -136.5t94.5 -45.5t95 45.5t35 136.5t-35 136.5t-95 45.5z
M328 587q-27 0 -48 13t-39 28.5t-35 28.5t-36 13q-25 0 -42.5 -23t-30.5 -52l-45 40q14 44 47 71.5t66 27.5q32 0 55 -13.5t41.5 -29t34.5 -29t35 -13.5q25 0 43.5 24.5t31.5 55.5l45 -40q-7 -24 -20.5 -43t-30.5 -32t-35.5 -20t-36.5 -7z" />
    <glyph glyph-name="odieresis" unicode="&#xf6;" horiz-adv-x="504" 
d="M251 545q49 0 91 -18t72 -53t47 -87.5t17 -121.5t-17 -121t-47 -87t-72 -53t-91 -18q-50 0 -91.5 18t-71.5 53t-47 87t-17 121t17 121.5t47 87.5t71.5 53t91.5 18zM251 447q-60 0 -94.5 -45.5t-34.5 -136.5t34.5 -136.5t94.5 -45.5t95 45.5t35 136.5t-35 136.5t-95 45.5z
M163 609q-21 0 -34.5 12.5t-13.5 32.5q0 21 13.5 34t34.5 13q20 0 34 -13t14 -34q0 -20 -14 -32.5t-34 -12.5zM342 609q-20 0 -32.5 12.5t-12.5 32.5q0 21 12.5 34t32.5 13q22 0 34.5 -13t12.5 -34q0 -20 -12.5 -32.5t-34.5 -12.5z" />
    <glyph glyph-name="ugrave" unicode="&#xf9;" horiz-adv-x="470" 
d="M133 242q0 -81 21.5 -119.5t75.5 -38.5q35 0 60 23t45 70v354h99v-531h-94v51q-26 -34 -61 -49.5t-73 -15.5q-36 0 -67.5 12.5t-54.5 38t-36.5 64t-13.5 89.5v341h99v-289zM178 748l157 -146l-31 -42l-171 130z" />
    <glyph glyph-name="uacute" unicode="&#xfa;" horiz-adv-x="470" 
d="M133 242q0 -81 21.5 -119.5t75.5 -38.5q35 0 60 23t45 70v354h99v-531h-94v51q-26 -34 -61 -49.5t-73 -15.5q-36 0 -67.5 12.5t-54.5 38t-36.5 64t-13.5 89.5v341h99v-289zM336 690l-171 -130l-31 42l157 146z" />
    <glyph glyph-name="ucircumflex" unicode="&#xfb;" horiz-adv-x="470" 
d="M133 242q0 -81 21.5 -119.5t75.5 -38.5q35 0 60 23t45 70v354h99v-531h-94v51q-26 -34 -61 -49.5t-73 -15.5q-36 0 -67.5 12.5t-54.5 38t-36.5 64t-13.5 89.5v341h99v-289zM235 650l-109 -91l-31 36l140 143l140 -143l-31 -36z" />
    <glyph glyph-name="udieresis" unicode="&#xfc;" horiz-adv-x="470" 
d="M133 242q0 -81 21.5 -119.5t75.5 -38.5q35 0 60 23t45 70v354h99v-531h-94v51q-26 -34 -61 -49.5t-73 -15.5q-36 0 -67.5 12.5t-54.5 38t-36.5 64t-13.5 89.5v341h99v-289zM146 609q-21 0 -34.5 12.5t-13.5 32.5q0 21 13.5 34t34.5 13q20 0 34 -13t14 -34
q0 -20 -14 -32.5t-34 -12.5zM325 609q-20 0 -32.5 12.5t-12.5 32.5q0 21 12.5 34t32.5 13q22 0 34.5 -13t12.5 -34q0 -20 -12.5 -32.5t-34.5 -12.5z" />
    <glyph glyph-name="yacute" unicode="&#xfd;" horiz-adv-x="477" 
d="M211 -192h-104l78 220l-181 503h110l125 -374l124 374h108zM339 690l-171 -130l-31 42l157 146z" />
    <glyph glyph-name="ydieresis" unicode="&#xff;" horiz-adv-x="477" 
d="M211 -192h-104l78 220l-181 503h110l125 -374l124 374h108zM149 609q-21 0 -34.5 12.5t-13.5 32.5q0 21 13.5 34t34.5 13q20 0 34 -13t14 -34q0 -20 -14 -32.5t-34 -12.5zM328 609q-20 0 -32.5 12.5t-12.5 32.5q0 21 12.5 34t32.5 13q22 0 34.5 -13t12.5 -34
q0 -20 -12.5 -32.5t-34.5 -12.5z" />
    <glyph glyph-name="Scaron" unicode="&#x160;" horiz-adv-x="580" 
d="M290 808l108 91l32 -36l-140 -143l-140 143l31 36zM293 699q78 0 135.5 -27t91.5 -67l-73 -67q-60 65 -155 65q-26 0 -49.5 -5.5t-41.5 -16t-28.5 -25t-10.5 -32.5q0 -24 12.5 -40.5t34 -28.5t49.5 -21t59 -18q45 -14 88 -30t76.5 -41t53.5 -61t20 -90q0 -58 -24 -96.5
t-61.5 -62t-83.5 -33.5t-90 -10q-93 0 -164.5 25.5t-113.5 77.5l72 67q34 -35 86 -55.5t117 -20.5q75 0 120 28t45 76q0 29 -14 50t-35.5 35.5t-48 24.5t-51.5 16q-39 10 -82 24.5t-79 38.5t-59 59t-23 86q0 39 16 71t45.5 55t71.5 36t94 13z" />
    <glyph glyph-name="scaron" unicode="&#x161;" horiz-adv-x="452" 
d="M226 647l108 91l32 -36l-140 -143l-140 143l31 36zM222 548q56 0 99 -14t76 -45l-42 -80q-11 13 -28.5 22t-37 15t-38.5 8.5t-33 2.5q-37 0 -60.5 -13.5t-23.5 -39.5q0 -14 16 -26.5t35 -22.5q32 -17 72 -29.5t76 -30.5q20 -10 37.5 -23t30.5 -30t20.5 -39.5t7.5 -51.5
q0 -48 -18.5 -79t-47.5 -50t-65.5 -26.5t-73.5 -7.5q-69 0 -121 17t-93 48l41 81q30 -25 76 -39.5t94 -14.5q18 0 37.5 3t35 10t26 19t10.5 30q0 23 -17.5 38t-40.5 29q-17 9 -37.5 17t-42 15.5t-44 16t-41.5 20.5q-31 19 -51.5 47.5t-20.5 75.5q0 43 17.5 71t45 45t60.5 24
t64 7z" />
    <glyph glyph-name="Zcaron" unicode="&#x17d;" horiz-adv-x="499" 
d="M249 822l108 91l32 -36l-140 -143l-140 143l31 36zM47 692h431v-79l-321 -521h321v-92h-446v77l321 520h-306v95z" />
    <glyph glyph-name="zcaron" unicode="&#x17e;" horiz-adv-x="477" 
d="M238 647l108 91l32 -36l-140 -143l-140 143l31 36zM53 531h400v-80l-286 -356h286v-95h-422v79l286 355h-264v97z" />
    <glyph glyph-name="Oslash" unicode="&#xd8;" horiz-adv-x="635" 
d="M431 737h67l-28 -73q65 -42 102.5 -121.5t37.5 -197.5q0 -89 -21.5 -156t-60.5 -112t-93 -68t-118 -23q-26 0 -49 3.5t-46 10.5l-18 -52h-67l29 78q-66 41 -103.5 120.5t-37.5 198.5q0 88 21.5 155.5t60.5 113.5t92.5 69t117.5 23q50 0 96 -16zM317 611q-91 0 -144 -66
t-53 -200q0 -82 21 -138t60 -87l179 481q-15 5 -30.5 7.5t-32.5 2.5zM317 79q91 0 144.5 66.5t53.5 199.5q0 81 -21 137t-59 87l-180 -480q27 -10 62 -10z" />
    <glyph glyph-name="oslash" unicode="&#xf8;" horiz-adv-x="504" 
d="M403 588l-28 -78q48 -32 76 -93t28 -152q0 -69 -17 -121t-47 -87t-72 -53t-91 -18q-34 0 -64 9l-19 -52h-66l28 76q-51 32 -78.5 93.5t-27.5 152.5q0 69 17 121.5t47 87.5t71.5 53t91.5 18q34 0 66 -9l19 52h66zM252 451q-60 0 -95.5 -45.5t-35.5 -136.5q0 -103 46 -149
l118 326q-18 5 -33 5zM252 79q57 0 94 41.5t37 123.5q0 60 -10 100t-34 66l-120 -327q16 -4 33 -4z" />
    <glyph glyph-name="Eogonek" unicode="&#x118;" horiz-adv-x="455" 
d="M297 -167q-8 -10 -26.5 -13.5t-30.5 -3.5q-43 0 -62.5 34.5t-19.5 103.5v56h51v-49q0 -34 7.5 -57.5t36.5 -23.5q4 0 15.5 1.5t28.5 10.5v-59zM35 692h381v-100h-282v-189h175v-99h-175v-207h290v-97h-389v692z" />
    <glyph glyph-name="Eth" unicode="&#xd0;" horiz-adv-x="614" 
d="M13 376h37v316h186q74 0 138.5 -26.5t112 -73t75 -109.5t27.5 -136t-27.5 -136t-75 -110t-112 -74t-138.5 -27h-186v297h-37v79zM151 376h142v-79h-142v-199h86q52 0 97.5 18.5t79.5 51.5t53.5 78.5t19.5 99.5q0 55 -19.5 100.5t-53.5 78t-79.5 50t-97.5 17.5h-86v-216z
" />
    <glyph glyph-name="multiply" unicode="&#xd7;" horiz-adv-x="353" 
d="M326 234l-43 -44l-107 107l-107 -107l-43 44l107 106l-109 108l44 45l108 -109l108 109l44 -45l-109 -108z" />
    <glyph glyph-name="divide" unicode="&#xf7;" horiz-adv-x="313" 
d="M8 292h295v-62h-295v62zM118 387q0 18 11.5 31t29.5 13q17 0 30 -13t13 -31q0 -17 -13 -29t-30 -12q-18 0 -29.5 12t-11.5 29zM118 134q0 17 11.5 30t29.5 13q17 0 30 -13t13 -30t-13 -29.5t-30 -12.5q-18 0 -29.5 12.5t-11.5 29.5z" />
    <glyph glyph-name="oneoldstyle" unicode="&#xf731;" horiz-adv-x="224" 
d="M90 378h-73v86q74 10 85 67h88v-531h-100v378z" />
    <glyph glyph-name="twooldstyle" unicode="&#xf732;" horiz-adv-x="540" 
d="M273 544q44 0 86 -11.5t75 -35t53 -58.5t20 -83q0 -50 -20.5 -85t-51.5 -61t-69 -46.5t-72 -39.5q-54 -32 -93.5 -80t-54.5 -109h365v-99h-485q4 61 15.5 113t33.5 95.5t56 80.5t83 68q25 16 58.5 31.5t62.5 34t49.5 42.5t20.5 58q0 22 -11 38.5t-29 27t-41.5 16
t-47.5 5.5q-42 0 -86 -18t-73 -53l-71 71q21 24 48 42.5t57 30.5t61 18.5t61 6.5z" />
    <glyph glyph-name="exclam" unicode="!" horiz-adv-x="170" 
d="M33 692h100l-18 -513h-68zM27 39q0 23 15.5 39.5t39.5 16.5q23 0 40 -16.5t17 -39.5t-17 -38.5t-40 -15.5q-24 0 -39.5 15.5t-15.5 38.5z" />
    <glyph glyph-name="quotedbl" unicode="&#x22;" horiz-adv-x="281" 
d="M188 426l-11 307h73l-14 -307h-48zM41 426l-11 307h73l-14 -307h-48z" />
    <glyph glyph-name="florin" unicode="&#x192;" horiz-adv-x="2098" 
d="M45 223h121v50h-32v156h32v55h-32v66h780v-82q-14 23 -43 23q-82 0 -82 -136q0 -135 85 -135q26 0 55 33v-30h43v327h664v-46h61v46h356v-451h-2008v124zM1601 223v167q0 96 -84 96q-42 0 -55 -43q-16 43 -49 43q-32 0 -48 -43v41h-57v-211h-34v-50h124v50h-33v108
q0 41 33 41q27 0 27 -41v-158h91v50h-34v108q0 39 34 39q26 0 26 -39v-158h59zM390 140h58v99q13 -21 43 -21q82 0 82 135t-86 135q-25 0 -55 -36v32h-42v-344zM779 351q0 139 -98 139q-96 0 -96 -139q0 -135 96 -135q98 0 98 135zM235 140h37q98 11 98 126v218h-59v-161
q0 -47 -35 -47q-34 0 -34 47v161h-57v-151q0 -113 82 -113q24 0 44 14q0 -41 -49 -41h-27v-53zM1151 484h-26v-41q-20 47 -59 47q-76 0 -76 -77q0 -48 39 -64q-41 -17 -41 -58q0 -38 21 -56.5t59 -18.5q39 0 61 23t22 71h-26q-4 -34 -45 -34q-35 0 -35 25q0 32 35 32h18v32
h-18q-35 0 -35 30q0 29 35 29q31 0 45 -36h26v96zM1881 481h-28v-38q-21 47 -53 47q-89 0 -89 -139q0 -133 91 -133q63 0 79 103h-28q-5 -41 -44 -41q-41 0 -41 71q0 73 41 73q39 0 44 -48h28v105zM1249 273h-25v115q0 36 25 36q10 0 21 -11l20 59q-12 12 -30 14
q-37 0 -55 -43v41h-34v-261h78v50zM1610 484v-55h26v-206h61v261h-87zM443 395q10 27 37 27q37 0 37 -67q0 -77 -39 -77q-24 0 -35 29v88zM720 351q0 -71 -39 -71q-37 0 -37 71q0 73 37 73q39 0 39 -73zM917 310q-10 -25 -35 -25q-38 0 -38 68q0 76 39 76q24 0 34 -28v-91z
M45 273v156h36v-156h-36zM45 484v66h36v-66h-36z" />
  </font>
</defs>
</svg>
